<svg id="Layer_1" data-name="Layer 1" xmlns="http://www.w3.org/2000/svg" viewBox="0 0 362.83 362.83"><defs><style>.cls-1{fill:#524c48;}.cls-2{fill:#ffe2a7;}.cls-3{fill:#939598;}.cls-4{fill:#58595b;}.cls-5{fill:none;stroke:#f1f2f2;stroke-linecap:round;stroke-linejoin:round;stroke-width:8.5px;}</style></defs><title>Arc Lamp</title><circle class="cls-1" cx="181.42" cy="181.42" r="181.42"/><path class="cls-2" d="M102.68,265.57l35-35a19.64,19.64,0,0,1,12.78-5.71c16.67-.89,36.7-10.56,53.55-27.41s26.51-36.88,27.41-53.54a19.58,19.58,0,0,1,5.7-12.78L271.31,97l-11.2-11.2L226,119.89a19.54,19.54,0,0,1-12.78,5.71c-16.66.9-36.7,10.57-53.54,27.41s-26.52,36.88-27.41,53.55a19.66,19.66,0,0,1-5.71,12.78l-35,35Z"/><path class="cls-3" d="M268.3,70.27H297.5a0,0,0,0,1,0,0v16a0,0,0,0,1,0,0H268.3a8,8,0,0,1-8-8v0a8,8,0,0,1,8-8Z" transform="translate(531.46 -63.64) rotate(135)"/><path class="cls-3" d="M65.34,265.21H94.62a7.91,7.91,0,0,1,7.91,7.91v0A7.91,7.91,0,0,1,94.62,281H65.34a0,0,0,0,1,0,0V265.21A0,0,0,0,1,65.34,265.21Z" transform="translate(336.41 406.9) rotate(135)"/><path class="cls-3" d="M185.18,166.58,263.06,88.7l5.36,5.36-77.88,77.88-1.81.11a4,4,0,0,1-3.66-3.65Z"/><path class="cls-3" d="M94.29,257.18l77.89-77.88,1.84-.09a4,4,0,0,1,3.64,3.67l-.12,1.78L99.65,262.54Z"/><path class="cls-4" d="M190.53,158.77a.67.67,0,0,1,.64.15l7.06,7c.32.31.19.94-.28,1.41s-1.1.61-1.41.3l-7.06-7c-.32-.31-.19-.95.28-1.42A1.56,1.56,0,0,1,190.53,158.77Z"/><path class="cls-4" d="M194.81,154.46a.7.7,0,0,1,.64.15l7.06,6.95c.32.31.19.94-.28,1.42s-1.1.6-1.41.29l-7.06-7c-.32-.31-.19-.94.28-1.42A1.64,1.64,0,0,1,194.81,154.46Z"/><path class="cls-4" d="M199.1,150.14a.69.69,0,0,1,.65.15l7.06,7c.31.31.18.94-.28,1.41s-1.11.61-1.42.3L198.05,152c-.31-.31-.19-.95.28-1.42A1.6,1.6,0,0,1,199.1,150.14Z"/><path class="cls-4" d="M203.38,145.83a.72.72,0,0,1,.65.15l7.06,7c.31.31.18.94-.28,1.42s-1.11.6-1.42.29l-7.06-6.95c-.31-.31-.19-.94.28-1.42A1.69,1.69,0,0,1,203.38,145.83Z"/><path class="cls-4" d="M207.65,141.54a.67.67,0,0,1,.64.15l7.06,6.95c.32.31.19.94-.28,1.41s-1.1.61-1.41.3l-7.06-7c-.32-.31-.19-.94.28-1.41A1.49,1.49,0,0,1,207.65,141.54Z"/><path class="cls-4" d="M211.93,137.23a.67.67,0,0,1,.64.15l7.06,7c.32.31.19.94-.28,1.41s-1.1.61-1.41.3l-7.06-7c-.32-.3-.19-.94.28-1.41A1.49,1.49,0,0,1,211.93,137.23Z"/><path class="cls-4" d="M216.23,132.9a.69.69,0,0,1,.65.14l7.06,7c.31.3.19.94-.28,1.41s-1.1.6-1.42.29l-7.06-6.95c-.31-.31-.19-.94.28-1.41A1.57,1.57,0,0,1,216.23,132.9Z"/><path class="cls-4" d="M190.56,158.74a1.15,1.15,0,0,1,.37,0l11.29,2.7c.46.12.58.65.26,1.21a1.45,1.45,0,0,1-1.42.79l-11.28-2.7c-.47-.11-.59-.64-.27-1.2A1.71,1.71,0,0,1,190.56,158.74Z"/><path class="cls-4" d="M194.84,154.44a.77.77,0,0,1,.37,0l11.28,2.7c.47.11.59.64.27,1.2a1.48,1.48,0,0,1-1.42.8l-11.28-2.7c-.47-.11-.59-.65-.27-1.2A1.67,1.67,0,0,1,194.84,154.44Z"/><path class="cls-4" d="M199.11,150.13a.81.81,0,0,1,.38,0l11.28,2.7c.47.11.59.65.27,1.2a1.48,1.48,0,0,1-1.42.8l-11.29-2.7c-.46-.11-.58-.65-.26-1.2A1.68,1.68,0,0,1,199.11,150.13Z"/><path class="cls-4" d="M203.39,145.82a.81.81,0,0,1,.38,0l11.28,2.7c.47.11.59.65.27,1.2a1.48,1.48,0,0,1-1.42.8l-11.29-2.7c-.46-.11-.58-.65-.26-1.2A1.65,1.65,0,0,1,203.39,145.82Z"/><path class="cls-4" d="M207.67,141.51a1,1,0,0,1,.38,0l11.28,2.7c.47.11.59.65.27,1.2a1.46,1.46,0,0,1-1.42.8l-11.29-2.7c-.46-.11-.58-.65-.26-1.2A1.69,1.69,0,0,1,207.67,141.51Z"/><path class="cls-4" d="M212,137.2a1.21,1.21,0,0,1,.38,0l11.28,2.7c.47.11.59.65.27,1.2a1.46,1.46,0,0,1-1.42.8l-11.29-2.7c-.46-.11-.58-.64-.26-1.2A1.69,1.69,0,0,1,212,137.2Z"/><path class="cls-4" d="M139.77,209.53a.7.7,0,0,1,.64.15l7.06,6.95c.32.31.19.94-.28,1.42s-1.1.6-1.41.29l-7.06-7c-.32-.31-.19-.94.28-1.42A1.64,1.64,0,0,1,139.77,209.53Z"/><path class="cls-4" d="M144.05,205.22a.7.7,0,0,1,.64.15l7.06,6.95c.32.31.19,1-.28,1.42s-1.1.6-1.41.29L143,207.08c-.32-.31-.19-.94.28-1.41A1.58,1.58,0,0,1,144.05,205.22Z"/><path class="cls-4" d="M148.34,200.9a.7.7,0,0,1,.64.15l7.07,6.95c.31.31.18.94-.29,1.42s-1.1.6-1.41.29l-7.06-7c-.31-.31-.19-.94.28-1.42A1.69,1.69,0,0,1,148.34,200.9Z"/><path class="cls-4" d="M152.62,196.59a.7.7,0,0,1,.64.15l7.07,6.95c.31.31.18.95-.29,1.42s-1.1.6-1.41.29l-7.06-7c-.31-.31-.19-.94.28-1.41A1.63,1.63,0,0,1,152.62,196.59Z"/><path class="cls-4" d="M156.89,192.3a.68.68,0,0,1,.64.15l7.06,7c.31.31.19.94-.28,1.41s-1.1.61-1.41.3l-7.07-7c-.31-.3-.18-.94.29-1.41A1.49,1.49,0,0,1,156.89,192.3Z"/><path class="cls-4" d="M161.17,188a.68.68,0,0,1,.64.15l7.06,7c.31.31.19.94-.28,1.41s-1.1.61-1.41.3l-7.07-7c-.31-.3-.18-.94.28-1.41A1.63,1.63,0,0,1,161.17,188Z"/><path class="cls-4" d="M165.47,183.66a.72.72,0,0,1,.65.14l7.06,7c.31.31.18.94-.28,1.41s-1.11.6-1.42.29l-7.06-7c-.31-.31-.19-.94.28-1.41A1.53,1.53,0,0,1,165.47,183.66Z"/><path class="cls-4" d="M139.79,209.51a.81.81,0,0,1,.38,0l11.28,2.69c.47.12.59.65.27,1.21a1.48,1.48,0,0,1-1.42.8L139,211.51c-.46-.12-.58-.65-.26-1.21A1.66,1.66,0,0,1,139.79,209.51Z"/><path class="cls-4" d="M144.07,205.2a.81.81,0,0,1,.38,0l11.28,2.7c.47.11.59.65.27,1.2a1.48,1.48,0,0,1-1.42.8l-11.29-2.7c-.46-.11-.58-.65-.26-1.2A1.65,1.65,0,0,1,144.07,205.2Z"/><path class="cls-4" d="M148.35,200.89a.81.81,0,0,1,.38,0l11.28,2.7c.47.11.59.65.27,1.2a1.48,1.48,0,0,1-1.42.8l-11.29-2.7c-.46-.11-.58-.65-.26-1.2A1.65,1.65,0,0,1,148.35,200.89Z"/><path class="cls-4" d="M152.63,196.58a.81.81,0,0,1,.38,0l11.28,2.7c.47.11.59.65.27,1.2a1.48,1.48,0,0,1-1.42.8l-11.29-2.7c-.46-.11-.58-.65-.26-1.2A1.69,1.69,0,0,1,152.63,196.58Z"/><path class="cls-4" d="M156.91,192.27a1,1,0,0,1,.38,0l11.28,2.7c.47.11.59.65.27,1.2a1.47,1.47,0,0,1-1.42.8l-11.29-2.7c-.46-.11-.58-.65-.26-1.2A1.69,1.69,0,0,1,156.91,192.27Z"/><path class="cls-4" d="M161.19,188a1.21,1.21,0,0,1,.38,0l11.28,2.7c.47.12.59.65.27,1.21a1.46,1.46,0,0,1-1.42.79L160.41,190c-.46-.11-.58-.64-.26-1.2A1.69,1.69,0,0,1,161.19,188Z"/><path class="cls-5" d="M198.08,191.35l-.05.05a95.42,95.42,0,0,1-28.11,19.76"/><path class="cls-5" d="M217.19,164.64A91.09,91.09,0,0,1,206,182.46"/></svg>