<svg id="Layer_1" data-name="Layer 1" xmlns="http://www.w3.org/2000/svg" xmlns:xlink="http://www.w3.org/1999/xlink" viewBox="0 0 362.83 362.83"><defs><style>.cls-1{fill:none;}.cls-2{fill:#c1b7ab;}.cls-3{clip-path:url(#clip-path);}.cls-4{fill:#55abcb;}.cls-5{fill:#f1f2f2;}.cls-6{fill:#1da675;}.cls-7{fill:#ad3d64;}</style><clipPath id="clip-path"><circle class="cls-1" cx="181.42" cy="181.42" r="128.86"/></clipPath></defs><title>Color Camera</title><circle class="cls-2" cx="181.42" cy="181.42" r="181.42"/><g class="cls-3"><rect class="cls-4" x="43.07" y="43.07" width="66.73" height="66.73"/><path class="cls-5" d="M108.39,44.49v63.9H44.49V44.49h63.9m2.83-2.84H41.65v69.57h69.57V41.65Z"/><rect class="cls-6" x="111.54" y="43.07" width="66.73" height="66.73"/><path class="cls-5" d="M176.85,44.49v63.9H113V44.49h63.9m2.84-2.84H110.12v69.57h69.57V41.65Z"/><rect class="cls-4" x="180" y="43.07" width="66.73" height="66.73"/><path class="cls-5" d="M245.32,44.49v63.9h-63.9V44.49h63.9m2.83-2.84H178.58v69.57h69.57V41.65Z"/><rect class="cls-6" x="248.46" y="43.07" width="66.73" height="66.73"/><path class="cls-5" d="M313.78,44.49v63.9h-63.9V44.49h63.9m2.84-2.84H247.05v69.57h69.57V41.65Z"/><rect class="cls-6" x="43.07" y="111.54" width="66.73" height="66.73"/><path class="cls-5" d="M108.39,113v63.9H44.49V113h63.9m2.83-2.83H41.65v69.57h69.57V110.12Z"/><rect class="cls-7" x="111.54" y="111.54" width="66.73" height="66.73"/><path class="cls-5" d="M176.85,113v63.9H113V113h63.9m2.84-2.83H110.12v69.57h69.57V110.12Z"/><rect class="cls-6" x="180" y="111.54" width="66.73" height="66.73"/><path class="cls-5" d="M245.32,113v63.9h-63.9V113h63.9m2.83-2.83H178.58v69.57h69.57V110.12Z"/><rect class="cls-7" x="248.46" y="111.54" width="66.73" height="66.73"/><path class="cls-5" d="M313.78,113v63.9h-63.9V113h63.9m2.84-2.83H247.05v69.57h69.57V110.12Z"/><rect class="cls-4" x="43.07" y="180" width="66.73" height="66.73"/><path class="cls-5" d="M108.39,181.42v63.9H44.49v-63.9h63.9m2.83-2.84H41.65v69.57h69.57V178.58Z"/><rect class="cls-6" x="111.54" y="180" width="66.73" height="66.73"/><path class="cls-5" d="M176.85,181.42v63.9H113v-63.9h63.9m2.84-2.84H110.12v69.57h69.57V178.58Z"/><rect class="cls-4" x="180" y="180" width="66.73" height="66.73"/><path class="cls-5" d="M245.32,181.42v63.9h-63.9v-63.9h63.9m2.83-2.84H178.58v69.57h69.57V178.58Z"/><rect class="cls-6" x="248.46" y="180" width="66.73" height="66.73"/><path class="cls-5" d="M313.78,181.42v63.9h-63.9v-63.9h63.9m2.84-2.84H247.05v69.57h69.57V178.58Z"/><rect class="cls-6" x="43.07" y="248.46" width="66.73" height="66.73"/><path class="cls-5" d="M108.39,249.88v63.9H44.49v-63.9h63.9m2.83-2.83H41.65v69.57h69.57V247.05Z"/><rect class="cls-7" x="111.54" y="248.46" width="66.73" height="66.73"/><path class="cls-5" d="M176.85,249.88v63.9H113v-63.9h63.9m2.84-2.83H110.12v69.57h69.57V247.05Z"/><rect class="cls-6" x="180" y="248.46" width="66.73" height="66.73"/><path class="cls-5" d="M245.32,249.88v63.9h-63.9v-63.9h63.9m2.83-2.83H178.58v69.57h69.57V247.05Z"/><rect class="cls-7" x="248.46" y="248.46" width="66.73" height="66.73"/><path class="cls-5" d="M313.78,249.88v63.9h-63.9v-63.9h63.9m2.84-2.83H247.05v69.57h69.57V247.05Z"/></g></svg>