<svg id="Layer_1" data-name="Layer 1" xmlns="http://www.w3.org/2000/svg" viewBox="0 0 362.83 362.83"><defs><style>.cls-1{fill:#456f78;}.cls-2{fill:#d5e7e5;}.cls-3{fill:#9dcaec;}.cls-4{fill:#78b0cc;}.cls-5{fill:#ebddec;}.cls-6{fill:#ed1c24;opacity:0.5;}.cls-7{fill:none;stroke:#231f20;stroke-linecap:round;stroke-linejoin:round;stroke-width:5.67px;}.cls-8{fill:#00aeef;stroke:#00aeef;stroke-miterlimit:10;}</style></defs><title>Confocal</title><circle class="cls-1" cx="181.42" cy="181.42" r="181.42"/><polygon class="cls-2" points="181.42 34 181.42 34 170.57 49.13 106.47 138.61 106.47 139.61 181.37 187.41 181.42 187.45 256.36 139.61 256.36 138.61 181.42 34"/><ellipse class="cls-3" cx="181.42" cy="139.61" rx="74.95" ry="7.09"/><polygon class="cls-4" points="181.42 34 181.42 34 181.42 34 181.42 34"/><polygon class="cls-5" points="181.37 187.48 181.42 187.45 181.37 187.41 181.37 187.48"/><polygon class="cls-6" points="181.37 187.48 181.42 187.45 181.37 187.41 181.37 187.48"/><line class="cls-7" x1="326.11" y1="187.45" x2="194.32" y2="187.45"/><line class="cls-7" x1="168.52" y1="187.45" x2="36.72" y2="187.45"/><polygon class="cls-2" points="181.42 187.45 181.37 187.48 172.93 192.86 106.47 235.29 106.47 236.29 156.77 306.5 181.42 340.9 185.49 335.21 256.36 236.29 256.36 235.29 181.42 187.45"/><ellipse class="cls-3" cx="181.42" cy="235.29" rx="74.95" ry="7.09"/><circle class="cls-8" cx="181.37" cy="35" r="8.5"/></svg>