<svg id="Layer_1" data-name="Layer 1" xmlns="http://www.w3.org/2000/svg" viewBox="0 0 362.83 362.83"><defs><style>.cls-1{fill:#bcdfbd;}.cls-2{fill:#333;}.cls-3{fill:#231f20;opacity:0.6;}.cls-4{fill:#ed1c24;opacity:0.5;}.cls-5{fill:#2c2f32;}.cls-6{fill:#2c3b4e;}</style></defs><title>Fast</title><circle class="cls-1" cx="181.42" cy="181.42" r="181.42"/><path class="cls-2" d="M90.68,161l-.33-.34A3.51,3.51,0,0,0,90.68,161Z"/><path class="cls-2" d="M90.14,153.21l.76-.76A5.46,5.46,0,0,0,90.14,153.21Z"/><path class="cls-2" d="M78.64,152.78l.07.07Z"/><path class="cls-3" d="M132.58,162.49l9.76-11.34H94.51a5.65,5.65,0,0,0-3.61,1.3l-.76.76a5.64,5.64,0,0,0,.21,7.44l.33.34a5.63,5.63,0,0,0,3.83,1.5Z"/><path class="cls-3" d="M110.91,210.34a5.67,5.67,0,0,0-5.67-5.67H93A5.67,5.67,0,0,0,93,216h12.23A5.67,5.67,0,0,0,110.91,210.34Z"/><path class="cls-3" d="M170.36,204.28H125.08a5.67,5.67,0,1,0,0,11.34h49.84l-.39-8.45Z"/><path class="cls-2" d="M118.33,188.86a7.92,7.92,0,0,0,.82-.28h-.28Z"/><path class="cls-4" d="M118.33,188.86a7.92,7.92,0,0,0,.82-.28h-.28Z"/><path class="cls-3" d="M140.26,230.85H112.07a5.67,5.67,0,1,0,0,11.34h28.19a5.67,5.67,0,1,0,0-11.34Z"/><path class="cls-3" d="M199.84,230.85H160.11a5.67,5.67,0,0,0,0,11.34H223a5.64,5.64,0,0,0,1.76-.28L223,242Z"/><path class="cls-3" d="M78.71,152.85l-.07-.07a5.62,5.62,0,0,0-4-1.63H32.37a5.72,5.72,0,0,0-3,.85,5.68,5.68,0,0,0,3,10.49h42.3a5.66,5.66,0,0,0,4-9.64Z"/><path class="cls-3" d="M107.41,177.72h-44a5.67,5.67,0,1,0,0,11.33H91.2l15.75-8,2.54-1.29,4.13-2.08Z"/><path class="cls-5" d="M146.17,162.49a5.67,5.67,0,1,0,0-11.34h-3.83l-9.76,11.34Z"/><path class="cls-6" d="M310.26,147.43l-3.64-5.52-8.75-2.69-10.37-1-17.32,2.4,13.88,1.11-26.56,3.06,5.27,2.65-14.52-.33-7.87,2.26-32.33-7.51h-.12l-36.66-.22h-.08l-15.44,2.5-13.13,6.68-.15.17-.13.16-9.76,11.34-8.58,10-10.38,5.25-4.13,2.08L107,181.09l-15.75,8L74.7,197.4l-12.55,1.29-13.46-4.93-1.82-.66L35,178.51l-4.46-1.91-5.31,1-.66,4.47,2,5.42,13.26,15.1L59.15,210l20.31-1.61,38.87-19.48.54-.27h.28l10.1-.34,3.81,5,13.39,6.23L159.14,202l9.13.88,2.09,1.44,4.17,2.89.39,8.45.05.95,4,4.24h10.33l5.33,7.51,5.23,2.53L223,242l1.76-.11,15.53-1,5.59-2.12V233.5l-3.91-4.33L227.38,231l-2.24-1,15.75-6.72,5.3-3,2.51-7.4-13.84-12.19,19.4-3.45,14.37-13.92,4.49-2.68,13.75-10.08,9.15,1.23,5.11-3.92,6.05,1.51,4-1.79,3.26-4.55,2.52-5.24.56-4.17ZM200.74,203.59,196.55,194l8.53,1.1.06,1.72,8,5.74-11.11.85Zm30,12.68-11,5.67-1.59,4.87-6.49-2.95-6.21-9.34,2.93-1.19L222,214.61l2.29-4.27,7.53,4.07Z"/></svg>