<svg id="Layer_1" data-name="Layer 1" xmlns="http://www.w3.org/2000/svg" viewBox="0 0 362.83 362.83"><defs><style>.cls-1{fill:#bcdfbd;}.cls-2{fill:#2c3b4e;}.cls-3{fill:#f3705a;}.cls-4{fill:#334b5e;}.cls-5{fill:#f15640;}.cls-6{fill:#1a1a1a;}.cls-7{fill:none;stroke:#fff;stroke-linecap:round;stroke-miterlimit:10;stroke-width:8.5px;opacity:0.35;}</style></defs><title>Motorized</title><circle class="cls-1" cx="181.42" cy="181.42" r="181.42"/><rect class="cls-2" x="170.42" y="118.37" width="21.99" height="141.98"/><circle class="cls-3" cx="181.42" cy="100.48" r="35.43" transform="translate(53.17 263.46) rotate(-80.78)"/><rect class="cls-4" x="141.1" y="235.17" width="80.63" height="29.32"/><rect class="cls-3" x="103.54" y="245.58" width="35.33" height="17.67"/><rect class="cls-5" x="224.58" y="245.58" width="35.33" height="17.67"/><rect class="cls-2" x="100.79" y="259.91" width="161.26" height="40.32"/><polygon class="cls-6" points="134.13 109.21 104.27 91.97 104.27 126.44 134.13 109.21"/><polygon class="cls-6" points="37.72 109.21 67.58 126.44 67.58 91.97 37.72 109.21"/><polygon class="cls-6" points="85.93 157.41 103.17 127.55 68.69 127.55 85.93 157.41"/><polygon class="cls-6" points="85.93 61 68.69 90.86 103.17 90.86 85.93 61"/><path class="cls-7" d="M156.78,96.86c0-11.1,10.44-21.89,20.87-21.89"/></svg>