<svg id="Layer_1" data-name="Layer 1" xmlns="http://www.w3.org/2000/svg" viewBox="0 0 362.83 362.83"><defs><style>.cls-1{fill:#c1bdcf;}.cls-2{fill:#58595b;}.cls-3{fill:#f1f2f2;}.cls-4{opacity:0.9;}.cls-5{fill:#9cc0e6;}.cls-6{fill:#1b75bc;}</style></defs><title>Phase</title><circle class="cls-1" cx="181.42" cy="181.42" r="181.42"/><circle class="cls-2" cx="181.42" cy="232.16" r="95.8"/><path class="cls-3" d="M181.42,307.75A75.59,75.59,0,1,1,257,232.16,75.67,75.67,0,0,1,181.42,307.75Zm0-139.51a63.92,63.92,0,1,0,63.9,63.92A64,64,0,0,0,181.42,168.24Z"/><g class="cls-4"><circle class="cls-5" cx="181.42" cy="130.68" r="95.8"/><path class="cls-6" d="M181.42,206.26A75.59,75.59,0,1,1,257,130.68,75.66,75.66,0,0,1,181.42,206.26Zm0-139.49a63.91,63.91,0,1,0,63.9,63.91A64,64,0,0,0,181.42,66.77Z"/></g></svg>