<svg id="Layer_1" data-name="Layer 1" xmlns="http://www.w3.org/2000/svg" viewBox="0 0 362.83 362.83"><defs><style>.cls-1{fill:#f6e396;}.cls-2{fill:#363942;}.cls-3{fill:#91a99c;}.cls-4{fill:#eaf6f9;}.cls-5{fill:#fdca94;stroke:#f2f2f3;}.cls-5,.cls-6{stroke-linecap:round;stroke-miterlimit:10;stroke-width:17.01px;}.cls-6{fill:none;stroke:#f7941d;}.cls-7{fill:#455978;}</style></defs><title>Tutorial</title><circle class="cls-1" cx="181.42" cy="181.42" r="181.42"/><rect class="cls-2" x="45.04" y="79.92" width="272.75" height="153.42"/><rect class="cls-3" x="149.41" y="254.29" width="64.01" height="42.41"/><path class="cls-4" d="M155,149l-7.2-.83a2.94,2.94,0,0,1-2.47-2,34.27,34.27,0,0,0-2.11-5.07,3,3,0,0,1,.3-3.2l4.51-5.69a3,3,0,0,0-.22-3.91l-6.7-6.7a3,3,0,0,0-3.91-.22l-5.69,4.51a3,3,0,0,1-3.2.3,34.27,34.27,0,0,0-5.07-2.11,3,3,0,0,1-2-2.47l-.83-7.2a2.94,2.94,0,0,0-2.92-2.61H108a2.94,2.94,0,0,0-2.92,2.61l-.83,7.2a3,3,0,0,1-2,2.47,34.38,34.38,0,0,0-5.08,2.11,3,3,0,0,1-3.2-.3l-5.68-4.51a3,3,0,0,0-3.91.22l-6.7,6.7a2.94,2.94,0,0,0-.22,3.91l4.51,5.69a3,3,0,0,1,.29,3.2,34.22,34.22,0,0,0-2.1,5.07,3,3,0,0,1-2.47,2l-7.21.83a2.93,2.93,0,0,0-2.6,2.92v9.47a2.94,2.94,0,0,0,2.6,2.93l7.21.83a3,3,0,0,1,2.47,2,34.34,34.34,0,0,0,2.1,5.08,3,3,0,0,1-.29,3.2l-4.51,5.68a2.94,2.94,0,0,0,.22,3.91l6.7,6.7a2.94,2.94,0,0,0,3.91.22l5.68-4.51a3,3,0,0,1,3.2-.3,33.34,33.34,0,0,0,5.08,2.11,3,3,0,0,1,2,2.47l.83,7.21a2.94,2.94,0,0,0,2.92,2.6h9.48a2.94,2.94,0,0,0,2.92-2.6l.83-7.21a3,3,0,0,1,2-2.47,33.23,33.23,0,0,0,5.07-2.11,3,3,0,0,1,3.2.3l5.69,4.51a2.94,2.94,0,0,0,3.91-.22l6.7-6.7a3,3,0,0,0,.22-3.91l-4.51-5.68a3,3,0,0,1-.3-3.2,34.38,34.38,0,0,0,2.11-5.08,2.94,2.94,0,0,1,2.47-2l7.2-.83a2.94,2.94,0,0,0,2.61-2.93v-9.47A2.93,2.93,0,0,0,155,149Zm-42.3,17.47a9.82,9.82,0,1,1,9.82-9.81A9.81,9.81,0,0,1,112.74,166.44Z"/><line class="cls-5" x1="185.56" y1="189.94" x2="290.3" y2="189.94"/><line class="cls-6" x1="262.33" y1="181.44" x2="262.33" y2="198.45"/><line class="cls-5" x1="185.56" y1="124.01" x2="290.3" y2="124.01"/><line class="cls-6" x1="210.29" y1="114.81" x2="210.29" y2="131.82"/><rect class="cls-7" x="45.04" y="233.34" width="272.75" height="24.31"/><rect class="cls-7" x="128.87" y="290.48" width="105.09" height="12.44"/></svg>