<?xml version="1.0" encoding="UTF-8"?><svg xmlns="http://www.w3.org/2000/svg" viewBox="0 0 362.83 362.83"><defs><style>.cls-1{fill:none;opacity:.5;stroke:#f1f2f2;stroke-linecap:round;stroke-miterlimit:10;stroke-width:5.67px;}.cls-2{fill:#0073b2;}.cls-3{fill:#1a1a1a;}.cls-4{fill:#7699b3;}</style></defs><g id="Layer_1"><circle class="cls-2" cx="181.41" cy="181.84" r="181.42"/></g><g id="Layer_2"><g><path class="cls-3" d="M137.36,271.58h2.19c0-4.51,18.75-8.17,41.87-8.17s41.87,3.66,41.87,8.17h2.19c18.11,0,32.79-26.19,32.79-58.51V94.67c-24.3-7.52-50.11-11.58-76.85-11.58s-52.55,4.06-76.85,11.58v118.41c0,32.31,14.68,58.51,32.79,58.51Z"/><path class="cls-4" d="M181.42,279.75c23.12,0,41.87-3.66,41.87-8.17h-83.74c0,4.51,18.75,8.17,41.87,8.17Z"/><path class="cls-4" d="M181.42,263.41c-23.12,0-41.87,3.66-41.87,8.17h83.74c0-4.51-18.75-8.17-41.87-8.17Z"/><path class="cls-1" d="M241.23,112.4v100.68c0,28.1-12.08,42.7-15.78,43.31"/></g></g></svg>