<?xml version="1.0" encoding="UTF-8"?><svg id="Layer_1" xmlns="http://www.w3.org/2000/svg" xmlns:xlink="http://www.w3.org/1999/xlink" viewBox="0 0 362.83 362.83"><defs><style>.cls-1{fill:#ad3d64;}.cls-2{fill:#cc79a7;}.cls-3{fill:#1da675;}.cls-4{fill:#55abcb;}.cls-5{fill:#f1f2f2;}.cls-6{clip-path:url(#clippath);}.cls-7{fill:none;}</style><clipPath id="clippath"><circle class="cls-7" cx="181.42" cy="181.42" r="128.86"/></clipPath></defs><circle class="cls-2" cx="181.42" cy="181.42" r="181.42"/><g class="cls-6"><g><g><rect class="cls-4" x="43.07" y="43.07" width="66.73" height="66.73"/><path class="cls-5" d="M108.39,44.49v63.9H44.49V44.49h63.9m2.83-2.83H41.65V111.22H111.22V41.65h0Z"/></g><g><rect class="cls-3" x="111.54" y="43.07" width="66.73" height="66.73"/><path class="cls-5" d="M176.85,44.49v63.9h-63.9V44.49h63.9m2.83-2.83H110.12V111.22h69.57V41.65h0Z"/></g><g><rect class="cls-4" x="180" y="43.07" width="66.73" height="66.73"/><path class="cls-5" d="M245.32,44.49v63.9h-63.9V44.49h63.9m2.83-2.83h-69.57V111.22h69.57V41.65h0Z"/></g><g><rect class="cls-3" x="248.46" y="43.07" width="66.73" height="66.73"/><path class="cls-5" d="M313.78,44.49v63.9h-63.9V44.49h63.9m2.83-2.83h-69.57V111.22h69.57V41.65h0Z"/></g><g><rect class="cls-3" x="43.07" y="111.54" width="66.73" height="66.73"/><path class="cls-5" d="M108.39,112.95v63.9H44.49v-63.9h63.9m2.83-2.83H41.65v69.57H111.22V110.12h0Z"/></g><g><rect class="cls-1" x="111.54" y="111.54" width="66.73" height="66.73"/><path class="cls-5" d="M176.85,112.95v63.9h-63.9v-63.9h63.9m2.83-2.83H110.12v69.57h69.57V110.12h0Z"/></g><g><rect class="cls-3" x="180" y="111.54" width="66.73" height="66.73"/><path class="cls-5" d="M245.32,112.95v63.9h-63.9v-63.9h63.9m2.83-2.83h-69.57v69.57h69.57V110.12h0Z"/></g><g><rect class="cls-1" x="248.46" y="111.54" width="66.73" height="66.73"/><path class="cls-5" d="M313.78,112.95v63.9h-63.9v-63.9h63.9m2.83-2.83h-69.57v69.57h69.57V110.12h0Z"/></g><g><rect class="cls-4" x="43.07" y="180" width="66.73" height="66.73"/><path class="cls-5" d="M108.39,181.42v63.9H44.49v-63.9h63.9m2.83-2.83H41.65v69.57H111.22v-69.57h0Z"/></g><g><rect class="cls-3" x="111.54" y="180" width="66.73" height="66.73"/><path class="cls-5" d="M176.85,181.42v63.9h-63.9v-63.9h63.9m2.83-2.83H110.12v69.57h69.57v-69.57h0Z"/></g><g><rect class="cls-4" x="180" y="180" width="66.73" height="66.73"/><path class="cls-5" d="M245.32,181.42v63.9h-63.9v-63.9h63.9m2.83-2.83h-69.57v69.57h69.57v-69.57h0Z"/></g><g><rect class="cls-3" x="248.46" y="180" width="66.73" height="66.73"/><path class="cls-5" d="M313.78,181.42v63.9h-63.9v-63.9h63.9m2.83-2.83h-69.57v69.57h69.57v-69.57h0Z"/></g><g><rect class="cls-3" x="43.07" y="248.46" width="66.73" height="66.73"/><path class="cls-5" d="M108.39,249.88v63.9H44.49v-63.9h63.9m2.83-2.83H41.65v69.57H111.22v-69.57h0Z"/></g><g><rect class="cls-1" x="111.54" y="248.46" width="66.73" height="66.73"/><path class="cls-5" d="M176.85,249.88v63.9h-63.9v-63.9h63.9m2.83-2.83H110.12v69.57h69.57v-69.57h0Z"/></g><g><rect class="cls-3" x="180" y="248.46" width="66.73" height="66.73"/><path class="cls-5" d="M245.32,249.88v63.9h-63.9v-63.9h63.9m2.83-2.83h-69.57v69.57h69.57v-69.57h0Z"/></g><g><rect class="cls-1" x="248.46" y="248.46" width="66.73" height="66.73"/><path class="cls-5" d="M313.78,249.88v63.9h-63.9v-63.9h63.9m2.83-2.83h-69.57v69.57h69.57v-69.57h0Z"/></g></g></g></svg>