<?xml version="1.0" encoding="UTF-8"?><svg id="Layer_1" xmlns="http://www.w3.org/2000/svg" viewBox="0 0 362.83 362.83"><defs><style>.cls-1{fill:#524c48;}.cls-2{opacity:.2;}.cls-3{fill:#fff;opacity:.5;}.cls-4{fill:#80d1e1;}.cls-5{fill:#2bb673;}.cls-6{fill:#f19c23;}.cls-7{fill:#231f20;}.cls-8{fill:#efc41c;}</style></defs><circle class="cls-1" cx="181.42" cy="181.42" r="181.42"/><polygon class="cls-6" points="133.34 282.91 133.34 282.91 133.34 282.91 133.34 282.91"/><g><path class="cls-4" d="M284.29,159.78c-.12-3.78-.49-7.51-1.11-11.17-2.73-16.32-10.19-31.33-21.24-43.25l-4.48-4.48c-.67-.62-1.35-1.23-2.04-1.83-6.71-5.82-14.4-10.65-22.9-14.17-5.97-2.47-12.12-4.21-18.32-5.25-9.25-1.54-18.62-1.51-27.72,.02-16.86,2.83-32.82,10.79-45.44,23.4l-31.7,31.7,11.02,11.02,26.21,26.21,22.57,22.57,21.71,21.71,9.13,9.13,9.34,9.34,18.76,18.76,31.7-31.7c15.76-15.74,24.6-37.1,24.57-59.37,0-.89-.04-1.77-.06-2.65Z"/><path class="cls-5" d="M257.47,100.87l4.48,4.48c-1.43-1.55-2.93-3.04-4.48-4.48Z"/><path class="cls-3" d="M246.22,108.81c-2.4-2.18-4.95-4.17-7.62-5.96-7.87-5.25-16.84-8.72-26.28-10.11-2.82-.42-5.57,1.05-6.79,3.63s-.61,5.64,1.5,7.55c.95,.86,2.13,1.42,3.4,1.61,6.01,.88,11.78,2.85,17.06,5.72,3.6,1.96,6.98,4.33,10.05,7.12,2.64,2.4,6.73,2.2,9.12-.44s2.2-6.73-.44-9.12Z"/><path class="cls-3" d="M159.31,120.78c1.71,0,3.36-.68,4.57-1.89,5.62-5.65,12.48-9.9,20.04-12.42,2.19-.73,3.82-2.58,4.28-4.84,.46-2.26-.32-4.6-2.05-6.13-1.73-1.53-4.14-2.02-6.33-1.29-9.46,3.15-18.05,8.47-25.08,15.54-2.52,2.52-2.52,6.61,0,9.13,1.21,1.21,2.85,1.89,4.57,1.89Z"/><path class="cls-6" d="M112.31,198.88l-5.45-5.45-26.93,26.93c-2.52,2.52-2.52,6.61,0,9.13,0,0,0,0,0,0,2.52,2.52,6.61,2.52,9.13,0l26.93-26.93-3.68-3.68Z"/><path class="cls-6" d="M142.48,282.91l26.93-26.93-9.13-9.13-26.93,26.93c-2.52,2.52-2.52,6.61,0,9.13h0c2.52,2.52,6.61,2.52,9.13,0Z"/><path class="cls-6" d="M237.22,262.63l-9.13-9.13h0s-28.1-28.1-28.1-28.1c-2.52,2.52-6.61,2.52-9.13,0-2.52-2.52-2.52-6.61,0-9.13l-43.42-43.42-.86-.86c-2.52,2.52-6.61,2.52-9.13,0-2.52-2.52-2.52-6.61,0-9.13l-28.1-28.1-9.13-9.13c-2.52-2.52-6.61-2.52-9.13,0l-9.49,9.49c-2.52,2.52-2.52,6.61,0,9.13l28.1,28.1,15.63,15.63,11.78,11.78,26.01,26.01,27.4,27.4,28.1,28.1c2.52,2.52,6.61,2.52,9.13,0l9.49-9.49c2.52-2.52,2.52-6.61,0-9.13Z"/><polygon class="cls-6" points="137.44 162.85 109.34 134.75 137.44 162.85 137.44 162.85"/><rect class="cls-6" x="147" y="171.81" height="1.22"/><rect class="cls-6" x="169.14" y="163.85" height="61.41" transform="translate(-88.03 176.58) rotate(-45)"/><rect class="cls-6" x="214.03" y="219.58" width="0" height="39.74" transform="translate(-106.63 221.48) rotate(-45)"/><path class="cls-6" d="M190.85,225.4c2.52,2.52,6.61,2.52,9.13,0l-9.13-9.13c-2.52,2.52-2.52,6.61,0,9.13Z"/><rect class="cls-6" x="195.42" y="214.37" height="12.92"/><path class="cls-6" d="M137.44,171.98c2.52,2.52,6.61,2.52,9.13,0l-9.13-9.13c-2.52,2.52-2.52,6.61,0,9.13Z"/><rect class="cls-6" x="142" y="160.96" height="12.92"/><path class="cls-8" d="M125.3,187.97l-15.63-15.63-2.82,2.82c-5.04,5.04-5.04,13.22,0,18.27,2.52-2.52,6.61-2.52,9.13,0,.35,.35,.64,.73,.89,1.13,1.57,2.5,1.29,5.83-.89,8,5.04,5.04,13.22,5.04,18.27,0l2.82-2.82-11.78-11.78Z"/><path class="cls-8" d="M116.88,194.56c-.25-.4-.54-.78-.89-1.13-2.52-2.52-6.61-2.52-9.13,0l5.45,5.45,3.68,3.68c2.17-2.17,2.46-5.51,.89-8Z"/><path class="cls-8" d="M160.27,228.58c-5.04,5.04-5.04,13.22,0,18.27,2.52-2.52,6.61-2.52,9.13,0,2.52,2.52,2.52,6.61,0,9.13,5.04,5.04,13.22,5.04,18.27,0l2.82-2.82-27.4-27.4-2.82,2.82Z"/><path class="cls-8" d="M169.41,246.84c-2.52-2.52-6.61-2.52-9.13,0l9.13,9.13c2.52-2.52,2.52-6.61,0-9.13Z"/><rect class="cls-8" x="176.79" y="220.08" height="38.75"/><g class="cls-2"><path class="cls-7" d="M236.71,179.54l-6.51-6.51c-1.63-1.62-4-2.25-6.23-1.66l-28.93,7.61c-2.23,.6-3.97,2.33-4.57,4.56-.6,2.23,.03,4.6,1.66,6.24l12.6,12.6-13.89,13.89,9.13,9.13,13.89-13.89,22.84-22.84c2.52-2.52,2.52-6.61,0-9.13Z"/><path class="cls-7" d="M202.12,149.53c.6-2.23-.03-4.6-1.66-6.24l-3.97-3.97-13.19-13.19c-2.52-2.52-6.61-2.52-9.13,0l-22.84,22.84-13.89,13.89,9.13,9.13,13.89-13.89,1.95,1.95c.55,.55,1.19,.97,1.88,1.29,1.34,.61,2.88,.77,4.35,.37l28.93-7.61c2.23-.6,3.97-2.33,4.57-4.56Z"/></g></g></svg>