<?xml version="1.0" encoding="UTF-8"?><svg id="Layer_1" xmlns="http://www.w3.org/2000/svg" viewBox="0 0 362.83 362.83"><defs><style>.cls-1{fill:#39b54a;}.cls-1,.cls-2{opacity:.5;}.cls-3{fill:#a7a9ac;}.cls-2{fill:none;stroke:#f1f2f2;stroke-linecap:round;stroke-miterlimit:10;stroke-width:5.67px;}.cls-4{fill:#9dcaec;}.cls-5{fill:#0073b2;}.cls-6{fill:#d9f0fa;}.cls-7{fill:#68c2e5;}</style></defs><circle class="cls-5" cx="181.42" cy="181.42" r="181.42"/><path class="cls-6" d="M139.22,171.3c-36.24-8.48-78.19-21.8-78.19-21.8v62.8s41.98-13.33,78.23-21.81c-.71-3.11-1.1-6.35-1.1-9.68s.37-6.45,1.06-9.51Z"/><path class="cls-6" d="M301.81,149.5s-41.95,13.32-78.19,21.8c.69,3.06,1.06,6.24,1.06,9.51s-.39,6.57-1.1,9.68c36.25,8.48,78.23,21.81,78.23,21.81v-62.8Z"/><path class="cls-7" d="M223.61,171.3c-4.34-19.31-21.57-33.74-42.19-33.74s-37.86,14.43-42.19,33.74c16.93,3.96,32.61,6.87,42.19,6.87s25.27-2.91,42.19-6.87Z"/><path class="cls-7" d="M139.26,190.49c4.4,19.23,21.6,33.58,42.16,33.58s37.76-14.35,42.16-33.58c-16.91-3.96-32.58-6.86-42.16-6.86s-25.24,2.9-42.16,6.86Z"/><path class="cls-6" d="M223.61,171.3c-16.93,3.96-32.61,6.87-42.19,6.87s-25.27-2.91-42.19-6.87c-.69,3.06-1.06,6.24-1.06,9.51s.39,6.57,1.1,9.68c16.91-3.96,32.58-6.86,42.16-6.86s25.24,2.9,42.16,6.86c.71-3.11,1.1-6.35,1.1-9.68s-.37-6.45-1.06-9.51Z"/><path class="cls-1" d="M223.61,171.3c-16.93,3.96-32.61,6.87-42.19,6.87s-25.27-2.91-42.19-6.87c-.69,3.06-1.06,6.24-1.06,9.51s.39,6.57,1.1,9.68c16.91-3.96,32.58-6.86,42.16-6.86s25.24,2.9,42.16,6.86c.71-3.11,1.1-6.35,1.1-9.68s-.37-6.45-1.06-9.51Z"/><path class="cls-3" d="M91.99,204.3v-46.79c0-9.62-7.8-17.41-17.41-17.41H32.38c-3.61,13.11-5.55,26.9-5.55,41.16s1.87,27.56,5.36,40.46h42.38c9.62,0,17.41-7.8,17.41-17.41Z"/><path class="cls-2" d="M39.01,148.6h35.57c4.91,0,8.91,4,8.91,8.91"/><path class="cls-3" d="M330.45,140.09h-42.19c-9.62,0-17.41,7.8-17.41,17.41v46.79c0,9.62,7.8,17.41,17.41,17.41h42.38c3.49-12.9,5.36-26.46,5.36-40.46s-1.94-28.05-5.55-41.16Z"/><path class="cls-2" d="M279.35,157.51c0-4.91,4-8.91,8.91-8.91h35.57"/><ellipse class="cls-4" cx="91.99" cy="180.9" rx="5.07" ry="22.23"/><ellipse class="cls-4" cx="270.84" cy="180.9" rx="5.07" ry="22.23"/></svg>