<?xml version="1.0" encoding="UTF-8"?><svg id="Layer_1" xmlns="http://www.w3.org/2000/svg" viewBox="0 0 362.83 362.83"><defs><style>.cls-1{fill:none;stroke:#f1f2f2;stroke-linecap:round;stroke-linejoin:round;stroke-width:8.5px;}.cls-2{fill:#939598;}.cls-3{fill:#524c48;}.cls-4{fill:#ffe2a7;}.cls-5{fill:#58595b;}</style></defs><circle class="cls-3" cx="181.42" cy="181.42" r="181.42"/><g><path class="cls-4" d="M102.68,265.57l35.04-35.04c3.45-3.45,8.04-5.45,12.78-5.71,16.66-.9,36.7-10.57,53.54-27.41,16.84-16.84,26.51-36.88,27.41-53.54,.26-4.74,2.25-9.33,5.71-12.78l34.14-34.14-11.19-11.19-34.14,34.14c-3.45,3.45-8.04,5.45-12.78,5.71-16.66,.9-36.7,10.57-53.54,27.41s-26.51,36.88-27.41,53.54c-.26,4.74-2.25,9.33-5.71,12.78l-35.04,35.04,11.19,11.19Z"/><path class="cls-2" d="M268.3,70.27h29.21v15.97h-29.21c-4.41,0-7.98-3.58-7.98-7.98h0c0-4.41,3.58-7.98,7.98-7.98Z" transform="translate(531.46 -63.64) rotate(135)"/><path class="cls-2" d="M65.34,265.21h29.28c4.37,0,7.91,3.55,7.91,7.91h0c0,4.37-3.55,7.91-7.91,7.91h-29.28v-15.83h0Z" transform="translate(336.41 406.9) rotate(135)"/><path class="cls-2" d="M185.18,166.58l77.88-77.88,5.36,5.36-77.88,77.88-1.81,.11c-1.68,.1-3.76-1.97-3.66-3.65l.11-1.82Z"/><path class="cls-2" d="M94.29,257.18l77.88-77.88,1.84-.1c1.68-.09,3.75,2,3.64,3.67l-.12,1.78-77.88,77.88-5.36-5.36Z"/><g><path class="cls-5" d="M190.53,158.77c.25-.05,.49,0,.64,.15l7.06,6.95c.31,.31,.19,.94-.28,1.41-.47,.47-1.1,.6-1.42,.29l-7.06-6.95c-.31-.31-.19-.94,.28-1.41,.24-.24,.51-.39,.77-.44Z"/><path class="cls-5" d="M194.81,154.46c.25-.05,.49,0,.64,.15l7.06,6.95c.31,.31,.19,.94-.28,1.41-.47,.47-1.1,.6-1.42,.29l-7.06-6.95c-.31-.31-.19-.94,.28-1.41,.24-.24,.51-.39,.77-.44Z"/><path class="cls-5" d="M199.1,150.14c.25-.05,.49,0,.64,.15l7.06,6.95c.31,.31,.19,.94-.28,1.41-.47,.47-1.1,.6-1.42,.29l-7.06-6.95c-.31-.31-.19-.94,.28-1.41,.24-.24,.51-.39,.77-.44Z"/><path class="cls-5" d="M203.38,145.83c.25-.05,.49,0,.64,.15l7.06,6.95c.31,.31,.19,.94-.28,1.41-.47,.47-1.1,.6-1.42,.29l-7.06-6.95c-.31-.31-.19-.94,.28-1.41,.24-.24,.51-.39,.77-.44Z"/><path class="cls-5" d="M207.65,141.54c.25-.05,.49,0,.64,.15l7.06,6.95c.31,.31,.19,.94-.28,1.41-.47,.47-1.1,.6-1.42,.3l-7.06-6.95c-.31-.31-.19-.94,.28-1.41,.24-.24,.51-.39,.77-.44Z"/><path class="cls-5" d="M211.93,137.23c.25-.05,.49,0,.64,.15l7.06,6.95c.31,.31,.19,.94-.28,1.41-.47,.47-1.1,.6-1.42,.29l-7.06-6.95c-.31-.31-.19-.94,.28-1.41,.24-.24,.51-.39,.77-.44Z"/><path class="cls-5" d="M216.23,132.9c.25-.05,.49,0,.64,.15l7.06,6.95c.31,.31,.19,.94-.28,1.41-.47,.47-1.1,.6-1.42,.3l-7.06-6.95c-.31-.31-.19-.94,.28-1.41,.24-.24,.51-.39,.77-.44Z"/><path class="cls-5" d="M190.56,158.74c.13-.03,.26-.03,.37,0l11.29,2.7c.46,.11,.58,.65,.27,1.2-.32,.55-.95,.91-1.42,.8l-11.29-2.7c-.46-.11-.58-.65-.27-1.2,.24-.41,.66-.72,1.05-.8Z"/><path class="cls-5" d="M194.84,154.44c.13-.03,.26-.03,.37,0l11.29,2.7c.46,.11,.58,.65,.27,1.2-.32,.55-.95,.91-1.42,.8l-11.29-2.7c-.46-.11-.58-.65-.27-1.2,.24-.41,.66-.72,1.05-.8Z"/><path class="cls-5" d="M199.11,150.13c.13-.03,.26-.03,.37,0l11.29,2.7c.46,.11,.58,.65,.27,1.2-.32,.55-.95,.91-1.42,.8l-11.29-2.7c-.46-.11-.58-.65-.27-1.2,.24-.41,.66-.72,1.05-.8Z"/><path class="cls-5" d="M203.39,145.82c.13-.03,.26-.03,.37,0l11.29,2.7c.46,.11,.58,.65,.27,1.2-.32,.55-.95,.91-1.42,.8l-11.29-2.7c-.46-.11-.58-.65-.27-1.2,.24-.41,.66-.72,1.05-.8Z"/><path class="cls-5" d="M207.67,141.51c.13-.03,.26-.03,.37,0l11.29,2.7c.46,.11,.58,.65,.27,1.2-.32,.55-.95,.91-1.42,.8l-11.29-2.7c-.46-.11-.58-.65-.27-1.2,.24-.41,.66-.72,1.05-.8Z"/><path class="cls-5" d="M211.95,137.2c.13-.03,.26-.03,.37,0l11.29,2.7c.46,.11,.58,.65,.27,1.2s-.95,.91-1.42,.8l-11.29-2.7c-.46-.11-.58-.65-.27-1.2,.24-.41,.66-.72,1.05-.8Z"/></g><g><path class="cls-5" d="M139.77,209.53c.25-.05,.49,0,.64,.15l7.06,6.95c.31,.31,.19,.94-.28,1.41-.47,.47-1.1,.6-1.42,.29l-7.06-6.95c-.31-.31-.19-.94,.28-1.41,.24-.24,.51-.39,.77-.44Z"/><path class="cls-5" d="M144.05,205.22c.25-.05,.49,0,.64,.15l7.06,6.95c.31,.31,.19,.94-.28,1.41-.47,.47-1.1,.6-1.42,.29l-7.06-6.95c-.31-.31-.19-.94,.28-1.41,.24-.24,.51-.39,.77-.44Z"/><path class="cls-5" d="M148.34,200.9c.25-.05,.49,0,.64,.15l7.06,6.95c.31,.31,.19,.94-.28,1.41-.47,.47-1.1,.6-1.42,.29l-7.06-6.95c-.31-.31-.19-.94,.28-1.41,.24-.24,.51-.39,.77-.44Z"/><path class="cls-5" d="M152.62,196.59c.25-.05,.49,0,.64,.15l7.06,6.95c.31,.31,.19,.94-.28,1.41-.47,.47-1.1,.6-1.42,.29l-7.06-6.95c-.31-.31-.19-.94,.28-1.41,.24-.24,.51-.39,.77-.44Z"/><path class="cls-5" d="M156.89,192.3c.25-.05,.49,0,.64,.15l7.06,6.95c.31,.31,.19,.94-.28,1.41-.47,.47-1.1,.6-1.42,.3l-7.06-6.95c-.31-.31-.19-.94,.28-1.41,.24-.24,.51-.39,.77-.44Z"/><path class="cls-5" d="M161.17,187.99c.25-.05,.49,0,.64,.15l7.06,6.95c.31,.31,.19,.94-.28,1.41-.47,.47-1.1,.6-1.42,.29l-7.06-6.95c-.31-.31-.19-.94,.28-1.41,.24-.24,.51-.39,.77-.44Z"/><path class="cls-5" d="M165.47,183.66c.25-.05,.49,0,.64,.15l7.06,6.95c.31,.31,.19,.94-.28,1.41-.47,.47-1.1,.6-1.42,.3l-7.06-6.95c-.31-.31-.19-.94,.28-1.41,.24-.24,.51-.39,.77-.44Z"/><path class="cls-5" d="M139.79,209.51c.13-.03,.26-.03,.37,0l11.29,2.7c.46,.11,.58,.65,.27,1.2-.32,.55-.95,.91-1.42,.8l-11.29-2.7c-.46-.11-.58-.65-.27-1.2,.24-.41,.66-.72,1.05-.8Z"/><path class="cls-5" d="M144.07,205.2c.13-.03,.26-.03,.37,0l11.29,2.7c.46,.11,.58,.65,.27,1.2-.32,.55-.95,.91-1.42,.8l-11.29-2.7c-.46-.11-.58-.65-.27-1.2,.24-.41,.66-.72,1.05-.8Z"/><path class="cls-5" d="M148.35,200.89c.13-.03,.26-.03,.37,0l11.29,2.7c.46,.11,.58,.65,.27,1.2-.32,.55-.95,.91-1.42,.8l-11.29-2.7c-.46-.11-.58-.65-.27-1.2,.24-.41,.66-.72,1.05-.8Z"/><path class="cls-5" d="M152.63,196.58c.13-.03,.26-.03,.37,0l11.29,2.7c.46,.11,.58,.65,.27,1.2-.32,.55-.95,.91-1.42,.8l-11.29-2.7c-.46-.11-.58-.65-.27-1.2,.24-.41,.66-.72,1.05-.8Z"/><path class="cls-5" d="M156.91,192.27c.13-.03,.26-.03,.37,0l11.29,2.7c.46,.11,.58,.65,.27,1.2-.32,.55-.95,.91-1.42,.8l-11.29-2.7c-.46-.11-.58-.65-.27-1.2,.24-.41,.66-.72,1.05-.8Z"/><path class="cls-5" d="M161.19,187.96c.13-.03,.26-.03,.37,0l11.29,2.7c.46,.11,.58,.65,.27,1.2s-.95,.91-1.42,.8l-11.29-2.7c-.46-.11-.58-.65-.27-1.2,.24-.41,.66-.72,1.05-.8Z"/></g><path class="cls-1" d="M198.08,191.35s-.03,.04-.05,.05c-8.68,8.68-18.45,15.46-28.12,19.76"/><path class="cls-1" d="M217.19,164.64c-2.82,6.02-6.6,12.05-11.18,17.82"/></g></svg>