<?xml version="1.0" encoding="UTF-8"?><svg id="Layer_1" xmlns="http://www.w3.org/2000/svg" viewBox="0 0 362.83 362.83"><defs><style>.cls-1{fill:#cc79a7;}.cls-2{fill:#6d6e71;}.cls-3{fill:#1a1a1a;}.cls-4{fill:#f2f2f2;}</style></defs><circle class="cls-1" cx="181.42" cy="181.42" r="181.42"/><path class="cls-4" d="M154.25,181.1c0-23.98,10.38-45.48,26.82-60.44-14.44-12.84-33.41-20.71-54.26-20.71-45.17,0-81.78,36.61-81.78,81.78,0,20.89,7.9,39.89,20.79,54.35l6.64,6.64c14.46,12.89,33.46,20.79,54.35,20.79s40.43-8.13,54.95-21.34c-16.84-14.98-27.52-36.75-27.52-61.07Z"/><path class="cls-3" d="M236.03,99.32c-21.19,0-40.43,8.13-54.95,21.34,16.84,14.98,27.52,36.75,27.52,61.07s-10.38,45.48-26.82,60.44c14.44,12.84,33.41,20.71,54.26,20.71,45.17,0,81.78-36.61,81.78-81.78,0-21.72-8.53-41.41-22.34-56.05l-3.39-3.39c-14.64-13.81-34.33-22.34-56.05-22.34Z"/><path class="cls-2" d="M181.07,120.67c-16.44,14.96-26.82,36.46-26.82,60.44s10.4,45.43,26.82,60.38c.24,.22,.45,.47,.69,.68,16.44-14.96,26.82-36.46,26.82-60.44s-10.67-46.09-27.52-61.07Z"/></svg>