<?xml version="1.0" encoding="UTF-8"?><svg id="Layer_1" xmlns="http://www.w3.org/2000/svg" viewBox="0 0 362.83 362.83"><defs><style>.cls-1{fill:none;opacity:.35;stroke:#fff;stroke-linecap:round;stroke-miterlimit:10;stroke-width:8.5px;}.cls-2{fill:#524c48;}.cls-3{fill:#19a79f;}</style></defs><circle class="cls-2" cx="181.42" cy="181.42" r="181.42"/><path class="cls-3" d="M226.28,155.16l25.57,.85v-5.66l-25.57,.85c-.07-.87-.18-1.73-.33-2.59l49.81-11.39-2.05-7.66-48.82,15.04c-.29-.82-.63-1.62-1.01-2.41l22.56-12.04-2.83-4.9-21.71,13.52c-.49-.71-1.02-1.4-1.59-2.07l6.77-6.29,30.67-28.48-5.61-5.61-28.48,30.67-6.29,6.77c-.67-.57-1.36-1.1-2.07-1.59l13.52-21.71-4.9-2.83-12.04,22.56c-.79-.38-1.59-.71-2.41-1.01l15.04-48.82-7.66-2.05-2.88,12.59-8.51,37.22c-.86-.16-1.72-.27-2.59-.33l.85-25.57h-5.66l.85,25.57c-.87,.07-1.73,.18-2.59,.33l-11.39-49.81-7.66,2.05,1.32,4.29,11.96,38.83,1.76,5.71c-.82,.29-1.62,.63-2.41,1.01l-12.04-22.56-4.9,2.83,.8,1.28,12.35,19.84,.37,.6c-.71,.49-1.4,1.02-2.07,1.59l-34.75-37.42-.02-.02-5.61,5.61,.02,.02,37.42,34.75c-.57,.67-1.1,1.36-1.59,2.07l-20.4-12.71-.03-.03h0s-1.28-.79-1.28-.79l-2.83,4.9h0s22.56,12.04,22.56,12.04c-.38,.79-.71,1.6-1.01,2.41l-26.83-8.27-17.7-5.45-4.29-1.32-2.05,7.66h0s49.81,11.39,49.81,11.39c-.16,.86-.27,1.72-.33,2.59l-25.57-.85v5.66l25.57-.85c.07,.87,.18,1.73,.33,2.59l-16.51,3.77-20.71,4.74-12.59,2.88,2.05,7.66,35.56-10.96,11.73-3.61-99.01,99.01c-4.55,4.55-4.55,11.93,0,16.49,2.28,2.28,5.26,3.41,8.24,3.41s5.97-1.14,8.24-3.41l73.38-73.38,25.63-25.63-14.57,47.29,7.66,2.05,11.39-49.81c.86,.16,1.72,.27,2.59,.33l-.85,25.57h5.66s-.85-25.57-.85-25.57c.87-.07,1.73-.18,2.59-.33l11.39,49.81,7.66-2.05-15.04-48.82c.82-.29,1.62-.63,2.41-1.01l12.04,22.56,4.9-2.83-13.52-21.71c.71-.49,1.4-1.02,2.07-1.59l34.77,37.44,5.61-5.61-37.44-34.77c.57-.67,1.1-1.36,1.59-2.07l21.71,13.52,2.83-4.9-22.56-12.04c.38-.79,.71-1.6,1.01-2.41l48.82,15.04,2.05-7.66-49.81-11.39c.16-.86,.27-1.72,.33-2.59Z"/><path class="cls-1" d="M184.39,156.42c0-11.11,8.44-20.09,18.87-20.09"/></svg>