<?xml version="1.0" encoding="UTF-8"?><svg id="Layer_1" xmlns="http://www.w3.org/2000/svg" viewBox="0 0 362.83 362.83"><defs><style>.cls-1{opacity:.9;}.cls-2{fill:#9cc0e6;}.cls-3{fill:#d36027;}.cls-4{fill:#f1f2f2;}.cls-5{fill:#1c75bc;}.cls-6{fill:#58595b;}</style></defs><circle class="cls-3" cx="181.42" cy="181.42" r="181.42"/><g><g><circle class="cls-6" cx="181.42" cy="232.16" r="95.8"/><path class="cls-4" d="M181.42,307.75c-41.68,0-75.58-33.91-75.58-75.59s33.9-75.59,75.58-75.59,75.58,33.91,75.58,75.59-33.9,75.59-75.58,75.59Zm0-139.5c-35.24,0-63.91,28.67-63.91,63.91s28.67,63.91,63.91,63.91,63.91-28.67,63.91-63.91-28.67-63.91-63.91-63.91Z"/></g><g class="cls-1"><circle class="cls-2" cx="181.42" cy="130.68" r="95.8"/><path class="cls-5" d="M181.42,206.26c-41.68,0-75.58-33.9-75.58-75.58s33.9-75.59,75.58-75.59,75.58,33.91,75.58,75.59-33.9,75.58-75.58,75.58Zm0-139.49c-35.24,0-63.91,28.67-63.91,63.91s28.67,63.9,63.91,63.9,63.91-28.67,63.91-63.9-28.67-63.91-63.91-63.91Z"/></g></g></svg>