<?xml version="1.0" encoding="UTF-8"?><svg id="Layer_3" xmlns="http://www.w3.org/2000/svg" viewBox="0 0 362.83 362.83"><defs><style>.cls-1{fill:#fff;}.cls-2{fill:#231f20;stroke:#231f20;stroke-miterlimit:10;}.cls-3{fill:#d36027;}</style></defs><g><circle class="cls-3" cx="181.42" cy="181.42" r="181.42"/><circle class="cls-1" cx="181.42" cy="181.42" r="142.3"/></g><circle class="cls-2" cx="234.46" cy="123.55" r="2.83"/><circle class="cls-2" cx="261.6" cy="202.31" r="2.83"/><circle class="cls-2" cx="244.6" cy="196.5" r="2.83"/><circle class="cls-2" cx="241.91" cy="150.33" r="2.83"/><circle class="cls-2" cx="207.51" cy="147.5" r="2.83"/><circle class="cls-2" cx="188.87" cy="170.25" r="2.83"/><circle class="cls-2" cx="244.6" cy="178.75" r="2.83"/><circle class="cls-2" cx="207.51" cy="124.92" r="2.83"/><circle class="cls-2" cx="258.77" cy="189.11" r="2.83"/><circle class="cls-2" cx="250.47" cy="129.45" r="2.83"/><circle class="cls-2" cx="227.4" cy="138.12" r="2.83"/><circle class="cls-2" cx="261.6" cy="175.92" r="2.83"/><circle class="cls-2" cx="154.23" cy="150.11" r="2.83"/><circle class="cls-2" cx="154.05" cy="246.03" r="2.83"/><circle class="cls-2" cx="146.14" cy="229.9" r="2.83"/><circle class="cls-2" cx="140.55" cy="174.31" r="2.83"/><circle class="cls-2" cx="210.35" cy="199.33" r="2.83"/><circle class="cls-2" cx="88.97" cy="150.89" r="2.83"/><circle class="cls-2" cx="158.68" cy="217.36" r="2.83"/><circle class="cls-2" cx="134.2" cy="132.02" r="2.83"/><circle class="cls-2" cx="161.38" cy="234.7" r="2.83"/><circle class="cls-2" cx="161.38" cy="165.6" r="2.83"/><circle class="cls-2" cx="138.94" cy="155.42" r="2.83"/><circle class="cls-2" cx="172.71" cy="227.37" r="2.83"/><g><circle class="cls-2" cx="258.73" cy="158.86" r="2.83"/><circle class="cls-2" cx="238.96" cy="239.79" r="2.83"/><circle class="cls-2" cx="227.8" cy="225.71" r="2.83"/><circle class="cls-2" cx="250.5" cy="185.42" r="2.83"/><circle class="cls-2" cx="223.11" cy="164.43" r="2.83"/><circle class="cls-2" cx="195.12" cy="173.48" r="2.83"/><circle class="cls-2" cx="237.4" cy="210.78" r="2.83"/><circle class="cls-2" cx="235.32" cy="145.44" r="2.83"/><circle class="cls-2" cx="243.71" cy="227.16" r="2.83"/><circle class="cls-2" cx="269" cy="172.49" r="2.83"/><circle class="cls-2" cx="244.91" cy="167.3" r="2.83"/><circle class="cls-2" cx="253.23" cy="217.59" r="2.83"/><circle class="cls-2" cx="176.88" cy="137.81" r="2.83"/><circle class="cls-2" cx="124.85" cy="218.39" r="2.83"/><circle class="cls-2" cx="126.91" cy="200.55" r="2.83"/><circle class="cls-2" cx="152.29" cy="150.77" r="2.83"/><circle class="cls-2" cx="197.46" cy="209.56" r="2.83"/><circle class="cls-2" cx="121.56" cy="103.17" r="2.83"/><circle class="cls-2" cx="144.25" cy="196.78" r="2.83"/><circle class="cls-2" cx="169.82" cy="111.76" r="2.83"/><circle class="cls-2" cx="137.14" cy="212.82" r="2.83"/><circle class="cls-2" cx="174.51" cy="154.7" r="2.83"/><circle class="cls-2" cx="161.15" cy="134" r="2.83"/><circle class="cls-2" cx="150.63" cy="212.79" r="2.83"/></g><circle class="cls-2" cx="269.68" cy="203.56" r="2.83"/><circle class="cls-2" cx="208.43" cy="260.03" r="2.83"/><circle class="cls-2" cx="206.93" cy="242.12" r="2.83"/><circle class="cls-2" cx="248.13" cy="221.13" r="2.83"/><circle class="cls-2" cx="236.92" cy="188.49" r="2.83"/><circle class="cls-2" cx="208.6" cy="180.54" r="2.83"/><circle class="cls-2" cx="223.18" cy="235" r="2.83"/><circle class="cls-2" cx="257.6" cy="179.43" r="2.83"/><circle class="cls-2" cx="219.38" cy="252.14" r="2.83"/><circle class="cls-2" cx="270.69" cy="220.59" r="2.83"/><circle class="cls-2" cx="253.5" cy="202.94" r="2.83"/><circle class="cls-2" cx="232.6" cy="249.44" r="2.83"/><circle class="cls-2" cx="213.15" cy="140.74" r="2.83"/><circle class="cls-2" cx="125.22" cy="179.07" r="2.83"/><circle class="cls-2" cx="136.81" cy="165.35" r="2.83"/><circle class="cls-2" cx="185.49" cy="137.92" r="2.83"/><circle class="cls-2" cx="190.58" cy="211.89" r="2.83"/><circle class="cls-2" cx="186.24" cy="81.27" r="2.83"/><circle class="cls-2" cx="153.34" cy="171.8" r="2.83"/><circle class="cls-2" cx="221.68" cy="115.13" r="2.83"/><circle class="cls-2" cx="138.54" cy="181.23" r="2.83"/><circle class="cls-2" cx="201.82" cy="153.5" r="2.83"/><circle class="cls-2" cx="202.15" cy="128.86" r="2.83"/><circle class="cls-2" cx="149.8" cy="188.67" r="2.83"/><g><circle class="cls-2" cx="207.19" cy="226.72" r="2.83"/><circle class="cls-2" cx="124.04" cy="221.48" r="2.83"/><circle class="cls-2" cx="135.95" cy="208.02" r="2.83"/><circle class="cls-2" cx="179.6" cy="223.29" r="2.83"/><circle class="cls-2" cx="195.44" cy="192.63" r="2.83"/><circle class="cls-2" cx="181.61" cy="166.67" r="2.83"/><circle class="cls-2" cx="152.33" cy="214.84" r="2.83"/><circle class="cls-2" cx="216.28" cy="201.31" r="2.83"/><circle class="cls-2" cx="137.31" cy="223.94" r="2.83"/><circle class="cls-2" cx="195.58" cy="239.22" r="2.83"/><circle class="cls-2" cx="196.45" cy="214.6" r="2.83"/><circle class="cls-2" cx="148.4" cy="231.63" r="2.83"/><circle class="cls-2" cx="213.52" cy="142.44" r="2.83"/><circle class="cls-2" cx="125.04" cy="105.38" r="2.83"/><circle class="cls-2" cx="142.98" cy="104.28" r="2.83"/><circle class="cls-2" cx="196.44" cy="120.51" r="2.83"/><circle class="cls-2" cx="146.5" cy="175.31" r="2.83"/><circle class="cls-2" cx="237.9" cy="81.89" r="2.83"/><circle class="cls-2" cx="149.73" cy="120.69" r="2.83"/><circle class="cls-2" cx="237.92" cy="130.91" r="2.83"/><circle class="cls-2" cx="132.69" cy="116.5" r="2.83"/><circle class="cls-2" cx="196.47" cy="143.08" r="2.83"/><circle class="cls-2" cx="214.5" cy="126.28" r="2.83"/><circle class="cls-2" cx="135.09" cy="129.78" r="2.83"/></g><circle class="cls-2" cx="217.63" cy="239.31" r="2.83"/><circle class="cls-2" cx="139.31" cy="267.7" r="2.83"/><circle class="cls-2" cx="144.85" cy="250.61" r="2.83"/><circle class="cls-2" cx="190.97" cy="247.18" r="2.83"/><circle class="cls-2" cx="193.25" cy="212.74" r="2.83"/><circle class="cls-2" cx="170.2" cy="194.47" r="2.83"/><circle class="cls-2" cx="162.59" cy="250.33" r="2.83"/><circle class="cls-2" cx="215.82" cy="212.38" r="2.83"/><circle class="cls-2" cx="152.46" cy="264.66" r="2.83"/><circle class="cls-2" cx="211.98" cy="255.41" r="2.83"/><circle class="cls-2" cx="202.95" cy="232.48" r="2.83"/><circle class="cls-2" cx="165.7" cy="267.28" r="2.83"/><circle class="cls-2" cx="189.79" cy="159.52" r="2.83"/><circle class="cls-2" cx="93.87" cy="160.87" r="2.83"/><circle class="cls-2" cx="109.87" cy="152.7" r="2.83"/><circle class="cls-2" cx="165.37" cy="146.23" r="2.83"/><circle class="cls-2" cx="141.47" cy="216.41" r="2.83"/><circle class="cls-2" cx="187.96" cy="94.27" r="2.83"/><circle class="cls-2" cx="122.62" cy="165.04" r="2.83"/><circle class="cls-2" cx="207.55" cy="139.2" r="2.83"/><circle class="cls-2" cx="105.32" cy="168.01" r="2.83"/><circle class="cls-2" cx="174.41" cy="166.9" r="2.83"/><circle class="cls-2" cx="184.24" cy="144.31" r="2.83"/><circle class="cls-2" cx="112.83" cy="179.22" r="2.83"/></svg>