<?xml version="1.0" encoding="UTF-8"?><svg id="Layer_1" xmlns="http://www.w3.org/2000/svg" viewBox="0 0 362.83 362.83"><defs><style>.cls-1{opacity:.5;stroke:#f1f2f2;}.cls-1,.cls-2,.cls-3{fill:none;stroke-linecap:round;stroke-miterlimit:10;}.cls-1,.cls-3{stroke-width:5.67px;}.cls-2{stroke:#6d6e71;stroke-width:8.5px;}.cls-3{stroke:#58595b;}.cls-4{fill:#d36027;}.cls-5{fill:#1a1a1a;}.cls-6{fill:#d8e5cb;}.cls-7{fill:#7699b3;}.cls-8{fill:#fcfad7;}</style></defs><circle class="cls-4" cx="181.42" cy="181.42" r="181.42"/><g><polygon class="cls-8" points="181.41 181.59 122.97 111.75 119.78 107.95 91.06 107.95 181.41 181.59"/><polygon class="cls-8" points="181.42 181.59 181.42 181.59 271.78 107.95 243.05 107.95 181.42 181.59"/></g><polygon class="cls-6" points="181.41 181.59 200.82 146.96 162.01 146.96 181.41 181.59"/><g><path class="cls-8" d="M181.42,181.59l37.27,44.53h-74.53l37.27-44.53h0s-54.64,44.53-54.64,44.53v67.4c16.51,8.08,35.05,12.62,54.64,12.62s38.13-4.54,54.63-12.62v-67.4l-54.63-44.53Z"/><path class="cls-5" d="M160.31,147.02h1.05c0-2.16,8.98-3.91,20.07-3.91s20.07,1.75,20.07,3.91h1.05c8.68,0,15.71-12.55,15.71-28.04V62.24c-11.64-3.61-24.01-5.55-36.83-5.55s-25.18,1.94-36.83,5.55v56.74c0,15.48,7.04,28.04,15.71,28.04Z"/><path class="cls-7" d="M181.42,150.94c11.08,0,20.07-1.75,20.07-3.91h-40.13c0,2.16,8.98,3.91,20.07,3.91Z"/><path class="cls-7" d="M181.42,143.11c-11.08,0-20.07,1.75-20.07,3.91h40.13c0-2.16-8.98-3.91-20.07-3.91Z"/></g><line class="cls-2" x1="223.29" y1="181.59" x2="139.54" y2="181.59"/><path class="cls-1" d="M210.08,70.74v48.24c0,13.46-5.79,20.46-7.56,20.75"/><line class="cls-3" x1="124.95" y1="226.44" x2="89.23" y2="226.44"/><line class="cls-3" x1="271.78" y1="226.44" x2="236.05" y2="226.44"/><line class="cls-3" x1="215" y1="226.03" x2="147.83" y2="226.03"/></svg>