<?xml version="1.0" encoding="UTF-8"?><svg id="Layer_1" xmlns="http://www.w3.org/2000/svg" viewBox="0 0 361.28 361.28"><defs><style>.cls-1{fill:#231f20;opacity:.6;}.cls-2{fill:#2c2f32;}.cls-3{fill:#333;}.cls-4{fill:#2c3b4e;}.cls-5{fill:#ffcd34;}.cls-6{fill:#ed1c24;opacity:.5;}</style></defs><circle class="cls-5" cx="181.42" cy="179.86" r="181.42"/><path class="cls-3" d="M90.68,159.43l-.33-.33c.11,.12,.22,.23,.33,.33Z"/><path class="cls-3" d="M90.14,151.65l.76-.76c-.28,.23-.53,.48-.76,.76Z"/><path class="cls-3" d="M78.64,151.22l.07,.07s-.05-.05-.07-.07Z"/><path class="cls-1" d="M132.58,160.93l9.75-11.34h-47.82c-1.37,0-2.63,.49-3.61,1.3l-.76,.76c-.81,.98-1.3,2.24-1.3,3.61,0,1.48,.57,2.82,1.5,3.83l.33,.33c1.01,.93,2.35,1.5,3.83,1.5h38.07Z"/><path class="cls-1" d="M110.91,208.79c0-3.13-2.54-5.67-5.67-5.67h-12.23c-3.13,0-5.67,2.54-5.67,5.67s2.54,5.67,5.67,5.67h12.23c3.13,0,5.67-2.54,5.67-5.67Z"/><path class="cls-1" d="M170.36,202.73h-45.27c-3.13,0-5.67,2.54-5.67,5.67s2.54,5.67,5.67,5.67h49.84l-.39-8.45-4.17-2.89Z"/><path class="cls-3" d="M118.33,187.31c.28-.07,.56-.17,.82-.28h-.27s-.54,.28-.54,.28Z"/><path class="cls-6" d="M118.33,187.31c.28-.07,.56-.17,.82-.28h-.27s-.54,.28-.54,.28Z"/><path class="cls-1" d="M140.26,229.29h-28.19c-3.13,0-5.67,2.54-5.67,5.67s2.54,5.67,5.67,5.67h28.19c3.13,0,5.67-2.54,5.67-5.67s-2.54-5.67-5.67-5.67Z"/><path class="cls-1" d="M199.84,229.29h-39.73c-3.13,0-5.67,2.54-5.67,5.67s2.54,5.67,5.67,5.67h62.85c.61,0,1.21-.1,1.76-.28l-1.76,.12-23.11-11.17Z"/><path class="cls-1" d="M78.71,151.29l-.07-.07c-1.02-1.01-2.42-1.63-3.97-1.63H32.37c-1.09,0-2.11,.32-2.98,.85-.75,.46-1.38,1.09-1.84,1.84-.54,.87-.85,1.89-.85,2.98s.32,2.12,.85,2.98c.46,.74,1.09,1.37,1.83,1.83,.87,.54,1.89,.85,2.98,.85h42.3c3.13,0,5.67-2.54,5.67-5.67,0-1.55-.62-2.95-1.63-3.97Z"/><path class="cls-1" d="M107.41,176.16H63.41c-3.13,0-5.67,2.54-5.67,5.67s2.54,5.67,5.67,5.67h27.79l15.75-7.97,2.54-1.29,4.13-2.09h-6.21Z"/><path class="cls-2" d="M146.17,160.93c3.13,0,5.67-2.54,5.67-5.67s-2.54-5.67-5.67-5.67h-3.84l-9.75,11.34h13.59Z"/><path class="cls-4" d="M310.26,145.88l-3.64-5.52-8.75-2.69-10.37-1.01-17.32,2.4,13.88,1.11-26.56,3.06,5.28,2.65-14.52-.33-7.87,2.26-32.33-7.5h-.12l-36.66-.22h-.09s-15.43,2.51-15.43,2.51l-13.13,6.68-.15,.17-.14,.16-9.75,11.34-8.58,9.98-10.38,5.25-4.13,2.09-2.54,1.29-15.75,7.97-16.5,8.35-12.55,1.29-13.46-4.93-1.82-.67-11.87-14.59-4.46-1.91-5.31,1.03-.65,4.46,2.02,5.42,13.25,15.1,19.3,7.34,20.32-1.61,38.86-19.48,.54-.27h.27s10.1-.35,10.1-.35l3.81,4.98,13.39,6.23,12.69,2.51,9.13,.88,2.09,1.44,4.17,2.89,.39,8.45,.04,.95,3.98,4.24h10.34l5.33,7.51,5.23,2.53,23.11,11.17,1.76-.12,15.53-1.04,5.59-2.13v-5.24l-3.91-4.33-14.54,1.81-2.24-1.03,15.75-6.72,5.3-3.01,2.51-7.4-13.84-12.18,19.4-3.46,14.37-13.92,4.49-2.68,13.75-10.08,9.14,1.24,5.11-3.92,6.05,1.51,3.98-1.79,3.25-4.55,2.53-5.25,.56-4.17-7.24-6.15Zm-109.52,56.16l-4.19-9.56,8.53,1.09,.06,1.73,8.04,5.73-11.11,.85-1.33,.16Zm30.04,12.68l-10.99,5.67-1.58,4.87-6.5-2.95-6.21-9.34,2.93-1.19,13.59,1.28,2.29-4.26,7.54,4.07-1.06,1.86Z"/></svg>