<?xml version="1.0" encoding="UTF-8"?><svg id="Layer_1" xmlns="http://www.w3.org/2000/svg" viewBox="0 0 362.83 362.83"><defs><style>.cls-1{fill:#91a99c;}.cls-2{fill:#363942;}.cls-3{fill:#455978;}.cls-4{fill:#eaf6f9;}.cls-5{fill:#fdca94;stroke:#f2f2f3;}.cls-5,.cls-6{stroke-linecap:round;stroke-miterlimit:10;stroke-width:17.01px;}.cls-6{fill:none;stroke:#f7941d;}.cls-7{fill:#f0e442;}</style></defs><circle class="cls-7" cx="181.42" cy="181.42" r="181.42"/><rect class="cls-2" x="45.04" y="79.92" width="272.75" height="153.42"/><rect class="cls-1" x="149.41" y="254.29" width="64.01" height="42.41"/><path class="cls-4" d="M155.04,148.97l-7.21-.83c-1.16-.13-2.11-.94-2.47-2.05-.57-1.76-1.28-3.45-2.11-5.07-.53-1.04-.43-2.29,.3-3.2l4.51-5.69c.93-1.17,.83-2.85-.22-3.91l-6.7-6.7c-1.06-1.06-2.74-1.15-3.91-.22l-5.69,4.51c-.91,.72-2.16,.83-3.2,.3-1.62-.83-3.32-1.54-5.07-2.11-1.11-.36-1.91-1.31-2.05-2.47l-.83-7.21c-.17-1.48-1.43-2.61-2.92-2.61h-9.48c-1.49,0-2.75,1.12-2.92,2.61l-.83,7.21c-.13,1.16-.94,2.11-2.05,2.47-1.76,.57-3.45,1.28-5.07,2.11-1.04,.53-2.29,.43-3.2-.3l-5.69-4.51c-1.17-.93-2.85-.83-3.91,.22l-6.7,6.7c-1.06,1.06-1.15,2.74-.22,3.91l4.51,5.69c.72,.91,.83,2.16,.3,3.2-.83,1.62-1.54,3.32-2.11,5.07-.36,1.11-1.31,1.91-2.47,2.05l-7.21,.83c-1.49,.17-2.61,1.43-2.61,2.92v9.48c0,1.49,1.12,2.75,2.61,2.92l7.21,.83c1.16,.13,2.11,.94,2.47,2.05,.57,1.76,1.28,3.45,2.11,5.07,.53,1.04,.43,2.29-.3,3.2l-4.51,5.69c-.93,1.17-.83,2.85,.22,3.91l6.7,6.7c1.06,1.06,2.74,1.15,3.91,.22l5.69-4.51c.91-.72,2.16-.83,3.2-.3,1.62,.83,3.32,1.54,5.07,2.11,1.11,.36,1.91,1.31,2.05,2.47l.83,7.21c.17,1.48,1.43,2.61,2.92,2.61h9.48c1.49,0,2.75-1.12,2.92-2.61l.83-7.21c.13-1.16,.94-2.11,2.05-2.47,1.76-.57,3.45-1.28,5.07-2.11,1.04-.53,2.29-.43,3.2,.3l5.69,4.51c1.17,.93,2.85,.83,3.91-.22l6.7-6.7c1.06-1.06,1.15-2.74,.22-3.91l-4.51-5.69c-.72-.91-.83-2.16-.3-3.2,.83-1.62,1.54-3.32,2.11-5.07,.36-1.11,1.31-1.91,2.47-2.05l7.21-.83c1.49-.17,2.61-1.43,2.61-2.92v-9.48c0-1.49-1.12-2.75-2.61-2.92Zm-42.3,17.48c-5.42,0-9.82-4.39-9.82-9.82s4.39-9.82,9.82-9.82,9.82,4.39,9.82,9.82-4.39,9.82-9.82,9.82Z"/><g><g><line class="cls-5" x1="185.56" y1="189.94" x2="290.3" y2="189.94"/><line class="cls-6" x1="262.33" y1="181.44" x2="262.33" y2="198.45"/></g><g><line class="cls-5" x1="185.56" y1="124.01" x2="290.3" y2="124.01"/><line class="cls-6" x1="210.29" y1="114.81" x2="210.29" y2="131.82"/></g></g><rect class="cls-3" x="45.04" y="233.34" width="272.75" height="24.31"/><rect class="cls-3" x="128.87" y="290.48" width="105.09" height="12.44"/></svg>