<?xml version="1.0" encoding="UTF-8"?><svg xmlns="http://www.w3.org/2000/svg" xmlns:xlink="http://www.w3.org/1999/xlink" viewBox="0 0 362.83 362.83"><defs><style>.cls-1{fill:#cc79a7;}.cls-2{clip-path:url(#clippath-1);}.cls-3{fill:#f1f2f2;}.cls-4{clip-path:url(#clippath);}.cls-5{fill:#808285;}.cls-6{fill:none;}.cls-7{fill:#bcbec0;}.cls-8{fill:#231f20;}.cls-9{fill:#58595b;}</style><clipPath id="clippath"><circle class="cls-6" cx="181.42" cy="181.42" r="128.86"/></clipPath><clipPath id="clippath-1"><circle class="cls-6" cx="181.42" cy="181.42" r="128.86"/></clipPath></defs><g id="Layer_1"><circle class="cls-1" cx="181.42" cy="181.42" r="181.42"/><g class="cls-4"><g><g><rect class="cls-7" x="45.36" y="45.35" width="66.73" height="66.73"/><path class="cls-3" d="M110.67,46.77v63.9H46.77V46.77h63.9m2.83-2.83H43.94V113.51H113.51V43.94h0Z"/></g><g><rect class="cls-5" x="113.82" y="45.35" width="66.73" height="66.73"/><path class="cls-3" d="M179.14,46.77v63.9h-63.9V46.77h63.9m2.83-2.83H112.4V113.51h69.57V43.94h0Z"/></g><g><rect class="cls-9" x="182.28" y="45.35" width="66.73" height="66.73"/><path class="cls-3" d="M247.6,46.77v63.9h-63.9V46.77h63.9m2.83-2.83h-69.57V113.51h69.57V43.94h0Z"/></g><g><rect class="cls-8" x="250.75" y="45.35" width="66.73" height="66.73"/><path class="cls-3" d="M316.06,46.77v63.9h-63.9V46.77h63.9m2.83-2.83h-69.57V113.51h69.57V43.94h0Z"/></g><g><rect class="cls-7" x="45.36" y="113.82" width="66.73" height="66.73"/><path class="cls-3" d="M110.67,115.24v63.9H46.77v-63.9h63.9m2.83-2.83H43.94v69.57H113.51V112.4h0Z"/></g><g><rect class="cls-5" x="113.82" y="113.82" width="66.73" height="66.73"/><path class="cls-3" d="M179.14,115.24v63.9h-63.9v-63.9h63.9m2.83-2.83H112.4v69.57h69.57V112.4h0Z"/></g><g><rect class="cls-9" x="182.28" y="113.82" width="66.73" height="66.73"/><path class="cls-3" d="M247.6,115.24v63.9h-63.9v-63.9h63.9m2.83-2.83h-69.57v69.57h69.57V112.4h0Z"/></g><g><rect class="cls-8" x="250.75" y="113.82" width="66.73" height="66.73"/><path class="cls-3" d="M316.06,115.24v63.9h-63.9v-63.9h63.9m2.83-2.83h-69.57v69.57h69.57V112.4h0Z"/></g><g><rect class="cls-7" x="45.36" y="182.28" width="66.73" height="66.73"/><path class="cls-3" d="M110.67,183.7v63.9H46.77v-63.9h63.9m2.83-2.83H43.94v69.57H113.51v-69.57h0Z"/></g><g><rect class="cls-5" x="113.82" y="182.28" width="66.73" height="66.73"/><path class="cls-3" d="M179.14,183.7v63.9h-63.9v-63.9h63.9m2.83-2.83H112.4v69.57h69.57v-69.57h0Z"/></g><g><rect class="cls-9" x="182.28" y="182.28" width="66.73" height="66.73"/><path class="cls-3" d="M247.6,183.7v63.9h-63.9v-63.9h63.9m2.83-2.83h-69.57v69.57h69.57v-69.57h0Z"/></g><g><rect class="cls-8" x="250.75" y="182.28" width="66.73" height="66.73"/><path class="cls-3" d="M316.06,183.7v63.9h-63.9v-63.9h63.9m2.83-2.83h-69.57v69.57h69.57v-69.57h0Z"/></g><g><rect class="cls-7" x="45.36" y="250.75" width="66.73" height="66.73"/><path class="cls-3" d="M110.67,252.16v63.9H46.77v-63.9h63.9m2.83-2.83H43.94v69.57H113.51v-69.57h0Z"/></g><g><rect class="cls-5" x="113.82" y="250.75" width="66.73" height="66.73"/><path class="cls-3" d="M179.14,252.16v63.9h-63.9v-63.9h63.9m2.83-2.83H112.4v69.57h69.57v-69.57h0Z"/></g><g><rect class="cls-9" x="182.28" y="250.75" width="66.73" height="66.73"/><path class="cls-3" d="M247.6,252.16v63.9h-63.9v-63.9h63.9m2.83-2.83h-69.57v69.57h69.57v-69.57h0Z"/></g><g><rect class="cls-8" x="250.75" y="250.75" width="66.73" height="66.73"/><path class="cls-3" d="M316.06,252.16v63.9h-63.9v-63.9h63.9m2.83-2.83h-69.57v69.57h69.57v-69.57h0Z"/></g></g></g></g><g id="Layer_2"><g class="cls-2"><g><g><rect class="cls-7" x="45.35" y="45.35" width="66.73" height="66.73"/><path class="cls-3" d="M110.67,46.77v63.9H46.77V46.77h63.9m2.83-2.83H43.94V113.51H113.51V43.94h0Z"/></g><g><rect class="cls-5" x="113.82" y="45.35" width="66.73" height="66.73"/><path class="cls-3" d="M179.14,46.77v63.9h-63.9V46.77h63.9m2.83-2.83H112.4V113.51h69.57V43.94h0Z"/></g><g><rect class="cls-9" x="182.28" y="45.35" width="66.73" height="66.73"/><path class="cls-3" d="M247.6,46.77v63.9h-63.9V46.77h63.9m2.83-2.83h-69.57V113.51h69.57V43.94h0Z"/></g><g><rect class="cls-8" x="250.75" y="45.35" width="66.73" height="66.73"/><path class="cls-3" d="M316.06,46.77v63.9h-63.9V46.77h63.9m2.83-2.83h-69.57V113.51h69.57V43.94h0Z"/></g><g><rect class="cls-7" x="45.35" y="113.82" width="66.73" height="66.73"/><path class="cls-3" d="M110.67,115.24v63.9H46.77v-63.9h63.9m2.83-2.83H43.94v69.57H113.51V112.4h0Z"/></g><g><rect class="cls-5" x="113.82" y="113.82" width="66.73" height="66.73"/><path class="cls-3" d="M179.14,115.24v63.9h-63.9v-63.9h63.9m2.83-2.83H112.4v69.57h69.57V112.4h0Z"/></g><g><rect class="cls-9" x="182.28" y="113.82" width="66.73" height="66.73"/><path class="cls-3" d="M247.6,115.24v63.9h-63.9v-63.9h63.9m2.83-2.83h-69.57v69.57h69.57V112.4h0Z"/></g><g><rect class="cls-8" x="250.75" y="113.82" width="66.73" height="66.73"/><path class="cls-3" d="M316.06,115.24v63.9h-63.9v-63.9h63.9m2.83-2.83h-69.57v69.57h69.57V112.4h0Z"/></g><g><rect class="cls-7" x="45.35" y="182.28" width="66.73" height="66.73"/><path class="cls-3" d="M110.67,183.7v63.9H46.77v-63.9h63.9m2.83-2.83H43.94v69.57H113.51v-69.57h0Z"/></g><g><rect class="cls-5" x="113.82" y="182.28" width="66.73" height="66.73"/><path class="cls-3" d="M179.14,183.7v63.9h-63.9v-63.9h63.9m2.83-2.83H112.4v69.57h69.57v-69.57h0Z"/></g><g><rect class="cls-9" x="182.28" y="182.28" width="66.73" height="66.73"/><path class="cls-3" d="M247.6,183.7v63.9h-63.9v-63.9h63.9m2.83-2.83h-69.57v69.57h69.57v-69.57h0Z"/></g><g><rect class="cls-8" x="250.75" y="182.28" width="66.73" height="66.73"/><path class="cls-3" d="M316.06,183.7v63.9h-63.9v-63.9h63.9m2.83-2.83h-69.57v69.57h69.57v-69.57h0Z"/></g><g><rect class="cls-7" x="45.35" y="250.75" width="66.73" height="66.73"/><path class="cls-3" d="M110.67,252.16v63.9H46.77v-63.9h63.9m2.83-2.83H43.94v69.57H113.51v-69.57h0Z"/></g><g><rect class="cls-5" x="113.82" y="250.75" width="66.73" height="66.73"/><path class="cls-3" d="M179.14,252.16v63.9h-63.9v-63.9h63.9m2.83-2.83H112.4v69.57h69.57v-69.57h0Z"/></g><g><rect class="cls-9" x="182.28" y="250.75" width="66.73" height="66.73"/><path class="cls-3" d="M247.6,252.16v63.9h-63.9v-63.9h63.9m2.83-2.83h-69.57v69.57h69.57v-69.57h0Z"/></g><g><rect class="cls-8" x="250.75" y="250.75" width="66.73" height="66.73"/><path class="cls-3" d="M316.06,252.16v63.9h-63.9v-63.9h63.9m2.83-2.83h-69.57v69.57h69.57v-69.57h0Z"/></g></g></g></g></svg>