<?xml version="1.0" encoding="UTF-8"?><svg id="Layer_1" xmlns="http://www.w3.org/2000/svg" viewBox="0 0 362.83 362.83"><defs><style>.cls-1{fill:#6d6e71;}.cls-2{fill:#d36027;}.cls-3{fill:#f1f2f2;}</style></defs><circle class="cls-2" cx="181.42" cy="181.42" r="181.42"/><g><path class="cls-3" d="M152.03,210.81c-21.74-21.74-28.85-52.52-21.46-80.24-13.67,3.64-26.6,10.74-37.32,21.46-32.46,32.46-32.46,85.1,0,117.56,32.46,32.46,85.1,32.46,117.56,0,10.72-10.72,17.82-23.65,21.46-37.32-27.72,7.38-58.5,.28-80.24-21.46Z"/><path class="cls-3" d="M152.03,93.24c-10.72,10.72-17.82,23.65-21.46,37.32,27.72-7.38,58.5-.28,80.24,21.46,21.74,21.74,28.85,52.52,21.46,80.24,13.67-3.64,26.6-10.74,37.32-21.46,32.46-32.46,32.46-85.1,0-117.56-32.46-32.46-85.1-32.46-117.56,0Z"/><path class="cls-1" d="M210.81,152.03c-21.74-21.74-52.52-28.85-80.24-21.46-7.38,27.72-.28,58.5,21.46,80.24,21.74,21.74,52.52,28.85,80.24,21.46,7.38-27.72,.28-58.5-21.46-80.24Z"/></g></svg>