<?xml version="1.0" encoding="UTF-8"?><svg id="Layer_1" xmlns="http://www.w3.org/2000/svg" viewBox="0 0 362.83 362.83"><defs><style>.cls-1{fill:#fff;}.cls-1,.cls-2,.cls-3,.cls-4{stroke:#231f20;stroke-miterlimit:10;}.cls-1,.cls-2,.cls-4{stroke-width:3px;}.cls-2{fill:none;}.cls-5{fill:#d36027;}.cls-3{stroke-width:2px;}.cls-3,.cls-4{fill:#231f20;}</style></defs><circle class="cls-5" cx="181.42" cy="181.42" r="181.42"/><g><polyline class="cls-4" points="210.58 251.88 306.83 251.88 251.25 228.14"/><path class="cls-4" d="M203.54,252.48s-126.95,2.81-132.14-14.92c-2.78-9.49-11.4-85.7-2.11-109.68,8.45-21.81,22.09-19.75,32.23,0,10.13,19.75,10.13,50.99,10.13,50.99,0,0,0,33.92,14.21,40.67,14.21,6.75,28.97,8.73,39.39,9.29"/><path class="cls-3" d="M68.66,91.19c0,.57-.2,1.1-.52,1.52-.45,.57-1.15,.94-1.94,.94-1.36,0-2.46-1.1-2.46-2.46s1.1-2.46,2.46-2.46,2.46,1.1,2.46,2.46Z"/><circle class="cls-3" cx="100.48" cy="88.68" r="2.81"/><path class="cls-2" d="M67.04,91.49s4.22,.99,6.33,8.44c2.11,7.46,4.61,16.85,4.61,16.85"/><path class="cls-2" d="M99.68,88.72s-6.05,4.92-7.6,8.54c-2.5,5.83-3.68,15.74-3.68,15.74"/><path class="cls-1" d="M161.62,206.61l-.13,3.99,3.49,16.1-18.26-1s-23-5.82-23.69-6.42-9.38-21.5-9.38-21.5l-.3-18.32c17.12-41.8,64.89-61.8,106.69-44.68,33.44,13.7,49.44,51.91,35.74,85.35-10.96,26.75-41.53,39.55-68.28,28.59-21.4-8.77-31.64-33.22-22.88-54.62,7.01-17.12,26.58-25.31,43.7-18.3,13.7,5.61,20.25,21.26,14.64,34.96-4.49,10.96-17.01,16.2-27.97,11.71-8.77-3.59-12.96-13.61-9.37-22.37,2.87-7.01,10.89-10.37,17.9-7.5,5.61,2.3,8.29,8.71,6,14.32"/></g></svg>