<?xml version="1.0" encoding="UTF-8"?><svg id="Layer_3" xmlns="http://www.w3.org/2000/svg" viewBox="0 0 362.83 362.83"><defs><style>.cls-1{stroke:#f15a29;}.cls-1,.cls-2{stroke-linecap:round;}.cls-1,.cls-2,.cls-3{fill:none;stroke-miterlimit:10;stroke-width:4px;}.cls-4{fill:#fff;}.cls-5{fill:#9cc0e6;}.cls-2,.cls-3{stroke:#f7941d;}.cls-6{fill:#459da0;}.cls-7{fill:#f1f2f2;}.cls-8{fill:#00a79d;}.cls-9{fill:#ffcd34;}.cls-10{fill:#e6e7e8;}.cls-11{fill:#58595b;}</style></defs><g><circle class="cls-9" cx="181.42" cy="181.42" r="181.42"/><circle class="cls-4" cx="181.42" cy="181.42" r="142.3"/></g><circle class="cls-10" cx="179.51" cy="181.42" r="126.65"/><path class="cls-11" d="M179.51,311.71c-71.84,0-130.29-58.45-130.29-130.29S107.67,51.12,179.51,51.12s130.29,58.45,130.29,130.3-58.45,130.29-130.29,130.29Zm0-253.31c-67.83,0-123.01,55.18-123.01,123.02s55.18,123.01,123.01,123.01,123.02-55.18,123.02-123.01-55.18-123.02-123.02-123.02Z"/><circle class="cls-5" cx="143.45" cy="134.45" r="39.43"/><path class="cls-2" d="M143.45,196.81c-23.3,0-43.62-12.78-54.32-31.72-5.11-9.05-8.03-19.5-8.03-30.63"/><path class="cls-2" d="M195.83,100.62c6.31,9.75,9.97,21.36,9.97,33.84,0,10.79-2.74,20.93-7.56,29.78-5.86,10.75-14.79,19.59-25.61,25.34"/><path class="cls-2" d="M143.45,72.1c6.58,0,12.92,1.02,18.87,2.91"/><path class="cls-2" d="M143.45,217.59c-16.41,0-31.71-4.76-44.6-12.97-15.22-9.7-27.08-24.21-33.42-41.4"/><path class="cls-2" d="M215.73,93.36c6.91,12.12,10.85,26.15,10.85,41.1,0,11.02-2.14,21.53-6.03,31.15"/><path class="cls-2" d="M237.79,178.1c-5.17,11.16-12.27,21.25-20.86,29.84-16.53,16.53-38.61,27.52-63.2,29.94-3.38,.33-6.81,.5-10.28,.5"/><path class="cls-2" d="M246.11,118.23c.83,5.29,1.26,10.7,1.26,16.22"/><line class="cls-3" x1="119.23" y1="191.93" x2="112.27" y2="208.24"/><line class="cls-3" x1="205.8" y1="134.45" x2="226.58" y2="134.45"/><line class="cls-3" x1="182.87" y1="182.73" x2="209.18" y2="214.97"/><path class="cls-1" d="M147.2,272.8c-5.99-1.68-11.99-3.61-17.97-5.79"/><path class="cls-1" d="M280.59,188.6c-3.18,10.21-6.78,19.9-10.75,28.99"/><circle class="cls-8" cx="198.21" cy="251.38" r="7.59"/><circle class="cls-8" cx="169.92" cy="208.98" r="7.59"/><circle class="cls-8" cx="177.52" cy="88.68" r="7.59"/><circle class="cls-8" cx="245.38" cy="155.64" r="7.59"/><path class="cls-6" d="M304.67,75.25l-.53-.53c-10.43-10.3-24.75-16.68-40.57-16.68-9.59,0-18.62,2.34-26.58,6.47-2.58,1.34-5.04,2.87-7.37,4.56-5.48,3.99-10.23,8.91-14.02,14.55-6.19,9.2-9.81,20.27-9.81,32.19,0,31.91,25.87,57.78,57.78,57.78,7.99,0,15.59-1.62,22.51-4.55,5.32-2.25,10.23-5.28,14.59-8.94,2.22-1.86,4.3-3.9,6.22-6.07,8.99-10.18,14.45-23.56,14.45-38.21,0-15.82-6.38-30.13-16.68-40.57Z"/><polygon class="cls-7" points="283.9 84.67 274.91 94.43 270.2 99.55 259.1 111.61 238.96 97.47 236.98 100.28 223.56 119.4 263.04 147.06 270.3 139.16 286.18 121.88 291.12 116.51 303.68 102.84 283.9 84.67"/></svg>