<?xml version="1.0" encoding="UTF-8"?><svg id="Layer_1" xmlns="http://www.w3.org/2000/svg" viewBox="0 0 362.83 362.83"><defs><style>.cls-1{stroke-width:5.67px;}.cls-1,.cls-2,.cls-3,.cls-4,.cls-5,.cls-6{fill:none;stroke-miterlimit:10;}.cls-1,.cls-2,.cls-5{stroke:#939598;}.cls-7{fill:#cc79a7;}.cls-8{fill:#00aeef;}.cls-9{fill:#e6e6e6;}.cls-10{fill:gray;}.cls-2,.cls-3{stroke-width:11.34px;}.cls-3{stroke:#414042;}.cls-3,.cls-4{stroke-linecap:round;}.cls-4{stroke:#f7941d;}.cls-4,.cls-6{stroke-width:2.83px;}.cls-11{fill:#e6e7e8;}.cls-12{fill:#1a1a1a;}.cls-5{stroke-width:17.01px;}.cls-6{stroke:#ef4136;}</style></defs><circle class="cls-7" cx="181.42" cy="181.42" r="181.42"/><path class="cls-9" d="M120.08,199.41c-1.04,.28-2.08,.59-3.09,.95,.36,.36,.7,.73,1.03,1.11l2.06-2.06Z"/><path class="cls-9" d="M181.6,137.9c-1.04,.27-2.07,.59-3.08,.95,.35,.35,.68,.73,1.01,1.12l2.07-2.07Z"/><g><rect class="cls-11" x="71.88" y="132.16" width="219.07" height="99.46" rx="18.75" ry="18.75" transform="translate(-75.48 181.55) rotate(-45)"/><path class="cls-6" d="M106.06,261.44c19.9-19.9,24.79-47.22,10.93-61.08"/><path class="cls-2" d="M174.75,240.43c15.8-15.8,20.05-85.3,3.76-101.59"/><path class="cls-1" d="M120.11,199.4s22.35,35.88,53.16,39.49"/><path class="cls-3" d="M144.52,239.5c18.72,8.94,41.1,1.02,50.03-17.7"/><path class="cls-3" d="M145.8,201.84c-18.72-8.94-41.1-1.02-50.03,17.7"/><path class="cls-5" d="M255.59,155.71c-24.98-10.55-25.07-30.49-22.49-51.46"/><path class="cls-10" d="M249.62,155.26l-.75-.75c-3.37,3.37-7.5,5.01-12.61,5.01h-.03c-18.04-.03-41.95-19.99-48.9-26.98l-10.05,9.99c.29,.29,26.56,26.42,52.32,30.58,.47-.37,1.01-.68,1.61-.89,8.52-3.01,14.96-9.31,18.41-16.97Z"/><path class="cls-12" d="M261.31,127.79c-1.04-2.95-4.28-4.5-7.24-3.45-2.95,1.04-4.5,4.28-3.45,7.24,2.84,8.04,2.25,16.46-1,23.68-3.45,7.66-9.88,13.96-18.41,16.97-.6,.21-1.14,.52-1.61,.89-1.86,1.46-2.67,3.99-1.84,6.34,.82,2.33,3.01,3.78,5.34,3.78,.63,0,1.27-.11,1.89-.33,8.65-3.06,15.71-8.61,20.68-15.56,.85-1.19,1.64-2.42,2.36-3.68,6.04-10.54,7.64-23.55,3.28-35.88Z"/><rect class="cls-8" x="228.95" y="82.32" width="8.26" height="44.86" rx="4.13" ry="4.13" transform="translate(120.3 334.05) rotate(-88.01)"/><path class="cls-3" d="M207.31,140.32c-18.72-8.94-41.1-1.02-50.03,17.7"/></g><line class="cls-4" x1="81.06" y1="238.44" x2="124.87" y2="282.25"/></svg>