<?xml version="1.0" encoding="UTF-8"?><svg id="Layer_1" xmlns="http://www.w3.org/2000/svg" viewBox="0 0 362.83 362.83"><defs><style>.cls-1{fill:#fff;}.cls-2{fill:#be5968;}.cls-3{fill:#ee82b4;}.cls-4{fill:#efe426;}.cls-5{fill:#cc79a7;}.cls-6{fill:#1da675;}.cls-7{fill:#8fd4d8;}.cls-8{fill:#849fc8;}</style></defs><circle class="cls-5" cx="181.42" cy="181.42" r="181.42"/><path class="cls-6" d="M181.42,151.89c14.05-12.15,32.37-19.5,52.4-19.5,9.32,0,18.27,1.6,26.6,4.53,.75-4.4,1.14-8.92,1.14-13.54,0-44.26-35.88-80.15-80.15-80.15s-80.15,35.88-80.15,80.15c0,4.61,.4,9.14,1.14,13.54,8.32-2.93,17.27-4.53,26.6-4.53,20.03,0,38.35,7.35,52.4,19.5Z"/><path class="cls-2" d="M153.67,212.53c0-4.61,.4-9.14,1.14-13.54-27.07-9.52-47.48-33.16-52.4-62.08-31.19,10.97-53.55,40.68-53.55,75.62,0,44.26,35.88,80.15,80.15,80.15,20.03,0,38.35-7.35,52.4-19.5-16.99-14.7-27.74-36.41-27.74-60.64Z"/><path class="cls-4" d="M154.82,198.99c3.18-18.71,12.84-35.21,26.6-47.1-14.05-12.15-32.37-19.5-52.4-19.5-9.32,0-18.27,1.6-26.6,4.53,4.92,28.92,25.33,52.56,52.4,62.08Z"/><path class="cls-8" d="M260.42,136.91c-4.92,28.92-25.33,52.56-52.4,62.08,.75,4.4,1.14,8.92,1.14,13.54,0,24.23-10.75,45.95-27.74,60.64,14.05,12.15,32.37,19.5,52.4,19.5,44.26,0,80.15-35.88,80.15-80.15,0-34.94-22.36-64.65-53.55-75.62Z"/><path class="cls-7" d="M181.42,151.89c13.76,11.9,23.42,28.4,26.6,47.1,27.07-9.52,47.48-33.16,52.4-62.08-8.32-2.93-17.27-4.53-26.6-4.53-20.03,0-38.35,7.35-52.4,19.5Z"/><path class="cls-3" d="M209.16,212.53c0-4.61-.4-9.14-1.14-13.54-8.32,2.93-17.27,4.53-26.6,4.53s-18.27-1.6-26.6-4.53c-.75,4.4-1.14,8.92-1.14,13.54,0,24.23,10.75,45.95,27.74,60.64,16.99-14.7,27.74-36.41,27.74-60.64Z"/><path class="cls-1" d="M181.42,151.89c-13.76,11.9-23.42,28.4-26.6,47.1,8.32,2.93,17.27,4.53,26.6,4.53s18.27-1.6,26.6-4.53c-3.18-18.71-12.84-35.21-26.6-47.1Z"/></svg>