<?xml version="1.0" encoding="UTF-8"?><svg id="Layer_1" xmlns="http://www.w3.org/2000/svg" viewBox="0 0 362.83 362.83"><defs><style>.cls-1{fill:#009e73;}.cls-2{fill:#cc79a7;}.cls-3{fill:none;stroke:#231f20;stroke-miterlimit:10;stroke-width:2px;}.cls-4{fill:#0073b2;}.cls-5{fill:#231f20;}</style></defs><circle class="cls-1" cx="181.41" cy="181.84" r="181.42"/><path class="cls-4" d="M237.01,108.35c-2.06,8.31-2.12,24.47-6.15,29.54-14.05,17.66-17.71,28.13-35.04,38.49-21.51,12.86-29.35,10.36-55.47,10.94-26.12,.58-45.04-1.24-56.71-5.08-11.67-3.84-24.86-9.3-24.86-9.3,0,0-8.88-9.75-9.24-20.27s5.08-19.6,7.51-20.79c2.43-1.19,11.21-5.69,20.08-.43,8.87,5.26,9.43,7.16,17.44,9.38s10.84,5.48,24.21,4.28c13.37-1.2,16.35-.62,25.5-3.13,9.15-2.51,9.94-2.39,18.26-7.63,8.32-5.24,11.51-6.69,19.52-13.27,8.01-6.58,9.86-7.72,15.38-17.98,5.53-10.26,24.61-50.25,32.74-48.83,8.14,1.42,14.78,21.14,14.31,22.35s-4.07,17.83-7.51,31.73Z"/><ellipse class="cls-2" cx="244.55" cy="264.73" rx="21.69" ry="19.94"/><g><line class="cls-3" x1="199.08" y1="188.45" x2="226.77" y2="238.51"/><path class="cls-5" d="M193.23,177.89c.91,5.99,1.17,13.9-.05,19.56l6.66-7.62,9.99-1.59c-5.45-1.98-12.01-6.4-16.6-10.35Z"/><path class="cls-5" d="M232.62,249.07c-4.59-3.95-11.15-8.37-16.6-10.35l9.99-1.6,6.66-7.61c-1.22,5.67-.95,13.57-.04,19.56Z"/></g></svg>