<?xml version="1.0" encoding="UTF-8"?><svg id="Layer_1" xmlns="http://www.w3.org/2000/svg" viewBox="0 0 362.83 362.83"><defs><style>.cls-1{fill:#21aae1;}.cls-2{fill:#bcbec0;}</style></defs><g><path class="cls-1" d="M181.42,41.97c-40.53,0-73.54,33.01-73.54,73.54s33.01,73.54,73.54,73.54,73.54-33.01,73.54-73.54-33.01-73.54-73.54-73.54Z"/><path class="cls-1" d="M302.67,259.09c-22.06-33.01-58.83-52.62-98.54-52.62h-45.43c-39.71,0-76.48,19.61-98.54,52.62l-1.31,2.12v41.76l117.36,45.16,127.76-42.71v-44.21l-1.31-2.12Z"/></g><path class="cls-2" d="M309.7,53.14C238.85-17.71,123.98-17.71,53.14,53.14c-70.85,70.85-70.85,185.72,0,256.56,70.85,70.85,185.72,70.85,256.56,0,70.85-70.85,70.85-185.72,0-256.56Zm-231.52,25.05c52.67-52.67,135.57-56.68,192.85-12.04L66.15,271.03c-44.65-57.28-40.64-140.18,12.03-192.85Zm13.62,218.51L296.69,91.8c44.65,57.28,40.64,140.18-12.03,192.85-52.67,52.67-135.57,56.68-192.85,12.04Z"/></svg>