<?xml version="1.0" encoding="UTF-8"?><svg id="Layer_1" xmlns="http://www.w3.org/2000/svg" viewBox="0 0 362.83 362.83"><defs><style>.cls-1{fill:#f1f2f2;}.cls-2{fill:#0073b2;}.cls-3{fill:#414042;}</style></defs><circle class="cls-2" cx="181.42" cy="181.42" r="181.42"/><circle class="cls-1" cx="181.42" cy="181.42" r="130.39"/><path class="cls-3" d="M181.42,51.02c-72.01,0-130.39,58.38-130.39,130.39s58.38,130.39,130.39,130.39,130.39-58.38,130.39-130.39S253.43,51.02,181.42,51.02Zm112.24,93.9c2.68-.97,5.64,.41,6.62,3.08,.97,2.68-.41,5.64-3.08,6.61-2.68,.97-5.64-.41-6.61-3.08-.97-2.68,.41-5.64,3.08-6.61Zm-3.32,16.56c.97,2.68-.41,5.64-3.08,6.61-2.68,.97-5.64-.41-6.61-3.08s.41-5.64,3.08-6.61c2.68-.97,5.64,.41,6.61,3.08Zm-15.93-52.75c2.18-1.83,5.44-1.55,7.27,.64,1.83,2.18,1.55,5.44-.64,7.27-2.18,1.83-5.44,1.55-7.27-.64-1.83-2.18-1.55-5.44,.64-7.27Zm-4.73,16.06c2.18-1.83,5.44-1.55,7.27,.64,1.83,2.18,1.55,5.44-.64,7.27-2.18,1.83-5.44,1.55-7.27-.64-1.83-2.18-1.55-5.44,.64-7.27Zm-4.73,16.06c2.18-1.83,5.44-1.55,7.27,.64,1.83,2.18,1.55,5.44-.64,7.27-2.18,1.83-5.44,1.55-7.27-.64-1.83-2.18-1.55-5.44,.64-7.27Zm2.43,54.19c-2.68,.97-5.64-.41-6.62-3.08-.97-2.68,.41-5.64,3.08-6.61,2.68-.97,5.64,.41,6.61,3.08,.97,2.68-.41,5.64-3.08,6.61Zm4.1,8.99c2.85,0,5.16,2.31,5.16,5.16s-2.31,5.16-5.16,5.16-5.16-2.31-5.16-5.16,2.31-5.16,5.16-5.16Zm-11.25-47.12c2.18-1.83,5.44-1.55,7.27,.64,1.83,2.18,1.55,5.44-.64,7.27-2.18,1.83-5.44,1.55-7.27-.64-1.83-2.18-1.55-5.44,.64-7.27Zm2.47,61.55c0,2.85-2.31,5.16-5.16,5.16s-5.16-2.31-5.16-5.16,2.31-5.16,5.16-5.16,5.16,2.31,5.16,5.16Zm-6.66-81.86c-1.43,2.47-4.58,3.31-7.05,1.89-2.47-1.43-3.31-4.58-1.89-7.05,1.43-2.47,4.58-3.31,7.05-1.89,2.47,1.43,3.31,4.58,1.89,7.05Zm-1.05-16.71c-1.43,2.47-4.58,3.31-7.05,1.89-2.47-1.43-3.31-4.58-1.89-7.05s4.58-3.31,7.05-1.89c2.47,1.43,3.31,4.58,1.89,7.05Zm-1.05-16.71c-1.43,2.47-4.58,3.31-7.05,1.89-2.47-1.43-3.31-4.58-1.89-7.05,1.43-2.47,4.58-3.31,7.05-1.89,2.47,1.43,3.31,4.58,1.89,7.05Zm-9.99-21.87c1.43-2.47,4.58-3.31,7.05-1.89,2.47,1.43,3.31,4.58,1.89,7.05-1.43,2.47-4.58,3.31-7.05,1.89-2.47-1.43-3.31-4.58-1.89-7.05Zm-25.33-4.19c2.81,.49,4.68,3.17,4.19,5.98-.49,2.81-3.17,4.68-5.98,4.19-2.81-.49-4.68-3.17-4.19-5.98,.49-2.81,3.17-4.68,5.98-4.19Zm-26.37,5.69c2.81-.49,5.48,1.38,5.98,4.19,.5,2.81-1.38,5.48-4.19,5.98-2.81,.49-5.48-1.38-5.98-4.19-.49-2.81,1.38-5.48,4.19-5.98Zm4.66,98.6c0,8.55-6.93,15.49-15.49,15.49s-15.49-6.93-15.49-15.49,6.93-15.49,15.49-15.49,15.49,6.93,15.49,15.49Zm-16.21-110.73c2.81-.49,5.48,1.38,5.98,4.19,.49,2.81-1.38,5.48-4.19,5.98-2.81,.49-5.48-1.38-5.98-4.19-.49-2.81,1.38-5.48,4.19-5.98Zm-.78,23.7c1.43,2.47,.58,5.62-1.89,7.05-2.47,1.43-5.62,.58-7.05-1.89-1.43-2.47-.58-5.62,1.89-7.05,2.47-1.43,5.62-.58,7.05,1.89Zm-10.77-35.83c2.81-.49,5.48,1.38,5.98,4.19,.49,2.81-1.38,5.48-4.19,5.98-2.81,.49-5.48-1.38-5.98-4.19-.49-2.81,1.38-5.48,4.19-5.98Zm-18.27,48.86c-1.83,2.18-5.09,2.47-7.27,.64-2.18-1.83-2.47-5.09-.64-7.27,1.83-2.18,5.09-2.47,7.27-.64,2.18,1.83,2.47,5.09,.64,7.27Zm-8.01-29.81c2.47-1.43,5.62-.58,7.05,1.89,1.43,2.47,.58,5.62-1.89,7.05-2.47,1.43-5.62,.58-7.05-1.89s-.58-5.62,1.89-7.05Zm-15-7.44c2.47-1.43,5.62-.58,7.05,1.89,1.43,2.47,.58,5.62-1.89,7.05-2.47,1.43-5.62,.58-7.05-1.89-1.43-2.47-.58-5.62,1.89-7.05Zm-1.54,28.75c1.83-2.18,5.09-2.47,7.27-.64,2.18,1.83,2.47,5.09,.64,7.27-1.83,2.18-5.09,2.47-7.27,.64s-2.47-5.09-.64-7.27Zm-16.64-1.87c1.83-2.18,5.09-2.47,7.27-.64,2.18,1.83,2.47,5.09,.64,7.27-1.83,2.18-5.09,2.47-7.27,.64-2.18-1.83-2.47-5.09-.64-7.27Zm-1.64,22.6c2.68,.97,4.06,3.94,3.08,6.61-.97,2.68-3.94,4.06-6.62,3.08-2.68-.97-4.06-3.94-3.08-6.61,.97-2.68,3.94-4.06,6.61-3.08Zm-15-24.46c1.83-2.18,5.09-2.47,7.27-.64,2.18,1.83,2.47,5.09,.64,7.27-1.83,2.18-5.09,2.47-7.27,.64-2.18-1.83-2.47-5.09-.64-7.27Zm2.4,72.59c2.68-.97,5.64,.41,6.61,3.08s-.41,5.64-3.08,6.61c-2.68,.97-5.64-.41-6.61-3.08-.97-2.68,.41-5.64,3.08-6.61Zm-4.1-8.99c-2.85,0-5.16-2.31-5.16-5.16s2.31-5.16,5.16-5.16,5.16,2.31,5.16,5.16-2.31,5.16-5.16,5.16Zm-6.19-32.12c.97-2.68,3.94-4.06,6.61-3.08,2.68,.97,4.06,3.94,3.08,6.61-.97,2.68-3.94,4.06-6.61,3.08-2.68-.97-4.06-3.94-3.08-6.61Zm.35,54.58c2.68-.97,5.64,.41,6.61,3.08,.97,2.68-.41,5.64-3.08,6.61-2.68,.97-5.64-.41-6.62-3.08s.41-5.64,3.08-6.61Zm-2.95-18.36c0,2.85-2.31,5.16-5.16,5.16s-5.16-2.31-5.16-5.16,2.31-5.16,5.16-5.16,5.16,2.31,5.16,5.16Zm-13.68-32.28c.97-2.68,3.94-4.06,6.62-3.08,2.68,.97,4.06,3.94,3.08,6.61-.97,2.68-3.94,4.06-6.61,3.08-2.68-.97-4.06-3.94-3.08-6.61Zm-10.59,41.55c0-2.85,2.31-5.16,5.16-5.16s5.16,2.31,5.16,5.16-2.31,5.16-5.16,5.16-5.16-2.31-5.16-5.16Zm10.88,45.75c-2.68,.97-5.64-.41-6.61-3.08-.97-2.68,.41-5.64,3.08-6.61,2.68-.97,5.64,.41,6.62,3.08,.97,2.68-.41,5.64-3.08,6.61Zm3.32-16.56c-.97-2.68,.41-5.64,3.08-6.61,2.68-.97,5.64,.41,6.62,3.08,.97,2.68-.41,5.64-3.08,6.61-2.68,.97-5.64-.41-6.61-3.08Zm15.93,52.75c-2.18,1.83-5.44,1.55-7.27-.64-1.83-2.18-1.55-5.44,.64-7.27s5.44-1.55,7.27,.64c1.83,2.18,1.55,5.44-.64,7.27Zm4.73-16.06c-2.18,1.83-5.44,1.55-7.27-.64-1.83-2.18-1.55-5.44,.64-7.27,2.18-1.83,5.44-1.55,7.27,.64,1.83,2.18,1.55,5.44-.64,7.27Zm4.73-16.06c-2.18,1.83-5.44,1.55-7.27-.64-1.83-2.18-1.55-5.44,.64-7.27,2.18-1.83,5.44-1.55,7.27,.64,1.83,2.18,1.55,5.44-.64,7.27Zm4.73-16.06c-2.18,1.83-5.44,1.55-7.27-.64-1.83-2.18-1.55-5.44,.64-7.27,2.18-1.83,5.44-1.55,7.27,.64s1.55,5.44-.64,7.27Zm-2.47-61.55c0-2.85,2.31-5.16,5.16-5.16s5.16,2.31,5.16,5.16-2.31,5.16-5.16,5.16-5.16-2.31-5.16-5.16Zm6.66,81.86c1.43-2.47,4.58-3.31,7.05-1.89,2.47,1.43,3.31,4.58,1.89,7.05-1.43,2.47-4.58,3.31-7.05,1.89-2.47-1.43-3.31-4.58-1.89-7.05Zm1.05,16.71c1.43-2.47,4.58-3.31,7.05-1.89,2.47,1.43,3.31,4.58,1.89,7.05-1.43,2.47-4.58,3.31-7.05,1.89-2.47-1.43-3.31-4.58-1.89-7.05Zm1.05,16.71c1.43-2.47,4.58-3.31,7.05-1.89,2.47,1.43,3.31,4.58,1.89,7.05-1.43,2.47-4.58,3.31-7.05,1.89-2.47-1.43-3.31-4.58-1.89-7.05Zm9.99,21.87c-1.43,2.47-4.58,3.31-7.05,1.89-2.47-1.43-3.31-4.58-1.89-7.05s4.58-3.31,7.05-1.89c2.47,1.43,3.31,4.58,1.89,7.05Zm1.9-156.11c-2.68-.97-4.06-3.94-3.08-6.61s3.94-4.06,6.61-3.08c2.68,.97,4.06,3.94,3.08,6.61s-3.94,4.06-6.61,3.08Zm10.01,129.61c-2.81-.49-4.68-3.17-4.19-5.98,.49-2.81,3.17-4.68,5.98-4.19,2.81,.49,4.68,3.17,4.19,5.98-.49,2.81-3.17,4.68-5.98,4.19Zm6.7,15.34c-2.81-.49-4.68-3.17-4.19-5.98,.5-2.81,3.17-4.68,5.98-4.19,2.81,.49,4.68,3.17,4.19,5.98-.49,2.81-3.17,4.68-5.98,4.19Zm6.7,15.34c-2.81-.49-4.68-3.17-4.19-5.98,.49-2.81,3.17-4.68,5.98-4.19,2.81,.49,4.68,3.17,4.19,5.98-.5,2.81-3.17,4.68-5.98,4.19Zm12.68,11.16c-.49,2.81-3.17,4.68-5.98,4.19-2.81-.49-4.68-3.17-4.19-5.98,.49-2.81,3.17-4.68,5.98-4.19,2.81,.49,4.68,3.17,4.19,5.98Zm2.14-28.98c-2.81,.49-5.48-1.38-5.98-4.19-.49-2.81,1.38-5.48,4.19-5.98,2.81-.49,5.48,1.38,5.98,4.19,.49,2.81-1.38,5.48-4.19,5.98Zm3.99-173.89c-2.47,1.43-5.62,.58-7.05-1.89-1.43-2.47-.58-5.62,1.89-7.05,2.47-1.43,5.62-.58,7.05,1.89,1.43,2.47,.58,5.62-1.89,7.05Zm7.56,186.02c-2.81,.49-5.48-1.38-5.98-4.19-.49-2.81,1.38-5.48,4.19-5.98,2.81-.49,5.48,1.38,5.98,4.19,.5,2.81-1.38,5.48-4.19,5.98Zm11.55,12.13c-2.81,.49-5.48-1.38-5.98-4.19-.49-2.81,1.38-5.48,4.19-5.98,2.81-.49,5.48,1.38,5.98,4.19,.49,2.81-1.38,5.48-4.19,5.98Zm.78-23.7c-1.43-2.47-.58-5.62,1.89-7.05,2.47-1.43,5.62-.58,7.05,1.89,1.43,2.47,.58,5.62-1.89,7.05-2.47,1.43-5.62,.58-7.05-1.89Zm10.77,35.83c-2.81,.49-5.48-1.38-5.98-4.19-.49-2.81,1.38-5.48,4.19-5.98,2.81-.49,5.48,1.38,5.98,4.19,.49,2.81-1.38,5.48-4.19,5.98Zm11.28-26.49c-2.47,1.43-5.62,.58-7.05-1.89-1.43-2.47-.58-5.62,1.89-7.05,2.47-1.43,5.62-.58,7.05,1.89,1.43,2.47,.58,5.62-1.89,7.05Zm.62-172.67c-2.81,.49-5.48-1.38-5.98-4.19-.49-2.81,1.38-5.48,4.19-5.98,2.81-.49,5.48,1.38,5.98,4.19,.49,2.81-1.38,5.48-4.19,5.98Zm.34-39.14c.49-2.81,3.17-4.68,5.98-4.19,2.81,.49,4.68,3.17,4.19,5.98-.49,2.81-3.17,4.68-5.98,4.19-2.81-.49-4.68-3.17-4.19-5.98Zm6.03,189.44c1.83-2.18,5.09-2.47,7.27-.64,2.18,1.83,2.47,5.09,.64,7.27-1.83,2.18-5.09,2.47-7.27,.64-2.18-1.83-2.47-5.09-.64-7.27Zm8.01,29.81c-2.47,1.43-5.62,.58-7.05-1.89-1.43-2.47-.58-5.62,1.89-7.05,2.47-1.43,5.62-.58,7.05,1.89,1.43,2.47,.58,5.62-1.89,7.05Zm3.56-182.59c-2.81-.49-4.68-3.17-4.19-5.98,.49-2.81,3.17-4.68,5.98-4.19,2.81,.49,4.68,3.17,4.19,5.98-.49,2.81-3.17,4.68-5.98,4.19Zm2.52,9.36c.49-2.81,3.17-4.68,5.98-4.19,2.81,.49,4.68,3.17,4.19,5.98-.49,2.81-3.17,4.68-5.98,4.19-2.81-.49-4.68-3.17-4.19-5.98Zm8.92,180.67c-2.47,1.43-5.62,.58-7.05-1.89-1.43-2.47-.58-5.62,1.89-7.05,2.47-1.43,5.62-.58,7.05,1.89,1.43,2.47,.58,5.62-1.89,7.05Zm1.54-28.75c-1.83,2.18-5.09,2.47-7.27,.64-2.18-1.83-2.47-5.09-.64-7.27,1.83-2.18,5.09-2.47,7.27-.64,2.18,1.83,2.47,5.09,.64,7.27Zm2-16.79c-2.68-.97-4.06-3.94-3.08-6.61,.97-2.68,3.94-4.06,6.62-3.08,2.68,.97,4.06,3.94,3.08,6.61-.97,2.68-3.94,4.06-6.61,3.08Zm14.64,18.66c-1.83,2.18-5.09,2.47-7.27,.64-2.18-1.83-2.47-5.09-.64-7.27,1.83-2.18,5.09-2.47,7.27-.64,2.18,1.83,2.47,5.09,.64,7.27Zm1.64-22.6c-2.68-.97-4.06-3.94-3.08-6.61s3.94-4.06,6.61-3.08c2.68,.97,4.06,3.94,3.08,6.61s-3.94,4.06-6.61,3.08Zm15,24.46c-1.83,2.18-5.09,2.47-7.27,.64-2.18-1.83-2.47-5.09-.64-7.27,1.83-2.18,5.09-2.47,7.27-.64,2.18,1.83,2.47,5.09,.64,7.27Zm7.89-31.48c-.97,2.68-3.94,4.06-6.62,3.08-2.68-.97-4.06-3.94-3.08-6.61,.97-2.68,3.94-4.06,6.61-3.08,2.68,.97,4.06,3.94,3.08,6.61Zm-.35-54.58c-2.68,.97-5.64-.41-6.62-3.08s.41-5.64,3.08-6.61c2.68-.97,5.64,.41,6.61,3.08,.97,2.68-.41,5.64-3.08,6.61Zm2.95,18.36c0-2.85,2.31-5.16,5.16-5.16s5.16,2.31,5.16,5.16-2.31,5.16-5.16,5.16-5.16-2.31-5.16-5.16Zm13.68,32.28c-.97,2.68-3.94,4.06-6.61,3.08-2.68-.97-4.06-3.94-3.08-6.61s3.94-4.06,6.61-3.08c2.68,.97,4.06,3.94,3.08,6.61Zm5.43-36.39c-2.85,0-5.16-2.31-5.16-5.16s2.31-5.16,5.16-5.16,5.16,2.31,5.16,5.16-2.31,5.16-5.16,5.16Z"/></svg>