<svg id="Layer_1" data-name="Layer 1" xmlns="http://www.w3.org/2000/svg" xmlns:xlink="http://www.w3.org/1999/xlink" viewBox="0 0 362.83 362.83"><defs><style>.cls-1{fill:none;}.cls-2{fill:#c1b7ab;}.cls-3{clip-path:url(#clip-path);}.cls-4{fill:#bcbec0;}.cls-5{fill:#f1f2f2;}.cls-6{fill:#808285;}.cls-7{fill:#58595b;}.cls-8{fill:#231f20;}</style><clipPath id="clip-path"><circle class="cls-1" cx="181.42" cy="181.42" r="128.86"/></clipPath></defs><title>BW Camera</title><circle class="cls-2" cx="181.42" cy="181.42" r="181.42"/><g class="cls-3"><rect class="cls-4" x="45.36" y="45.35" width="66.73" height="66.73"/><path class="cls-5" d="M110.67,46.77v63.9H46.77V46.77h63.9m2.84-2.83H43.94v69.57h69.57V43.94Z"/><rect class="cls-6" x="113.82" y="45.35" width="66.73" height="66.73"/><path class="cls-5" d="M179.14,46.77v63.9h-63.9V46.77h63.9M182,43.94H112.4v69.57H182V43.94Z"/><rect class="cls-7" x="182.28" y="45.35" width="66.73" height="66.73"/><path class="cls-5" d="M247.6,46.77v63.9H183.7V46.77h63.9m2.83-2.83H180.86v69.57h69.57V43.94Z"/><rect class="cls-8" x="250.75" y="45.35" width="66.73" height="66.73"/><path class="cls-5" d="M316.06,46.77v63.9h-63.9V46.77h63.9m2.84-2.83H249.33v69.57H318.9V43.94Z"/><rect class="cls-4" x="45.36" y="113.82" width="66.73" height="66.73"/><path class="cls-5" d="M110.67,115.24v63.9H46.77v-63.9h63.9m2.84-2.84H43.94V182h69.57V112.4Z"/><rect class="cls-6" x="113.82" y="113.82" width="66.73" height="66.73"/><path class="cls-5" d="M179.14,115.24v63.9h-63.9v-63.9h63.9M182,112.4H112.4V182H182V112.4Z"/><rect class="cls-7" x="182.28" y="113.82" width="66.73" height="66.73"/><path class="cls-5" d="M247.6,115.24v63.9H183.7v-63.9h63.9m2.83-2.84H180.86V182h69.57V112.4Z"/><rect class="cls-8" x="250.75" y="113.82" width="66.73" height="66.73"/><path class="cls-5" d="M316.06,115.24v63.9h-63.9v-63.9h63.9m2.84-2.84H249.33V182H318.9V112.4Z"/><rect class="cls-4" x="45.36" y="182.28" width="66.73" height="66.73"/><path class="cls-5" d="M110.67,183.7v63.9H46.77V183.7h63.9m2.84-2.84H43.94v69.57h69.57V180.86Z"/><rect class="cls-6" x="113.82" y="182.28" width="66.73" height="66.73"/><path class="cls-5" d="M179.14,183.7v63.9h-63.9V183.7h63.9m2.83-2.84H112.4v69.57H182V180.86Z"/><rect class="cls-7" x="182.28" y="182.28" width="66.73" height="66.73"/><path class="cls-5" d="M247.6,183.7v63.9H183.7V183.7h63.9m2.83-2.84H180.86v69.57h69.57V180.86Z"/><rect class="cls-8" x="250.75" y="182.28" width="66.73" height="66.73"/><path class="cls-5" d="M316.06,183.7v63.9h-63.9V183.7h63.9m2.84-2.84H249.33v69.57H318.9V180.86Z"/><rect class="cls-4" x="45.36" y="250.75" width="66.73" height="66.73"/><path class="cls-5" d="M110.67,252.16v63.9H46.77v-63.9h63.9m2.84-2.83H43.94V318.9h69.57V249.33Z"/><rect class="cls-6" x="113.82" y="250.75" width="66.73" height="66.73"/><path class="cls-5" d="M179.14,252.16v63.9h-63.9v-63.9h63.9m2.83-2.83H112.4V318.9H182V249.33Z"/><rect class="cls-7" x="182.28" y="250.75" width="66.73" height="66.73"/><path class="cls-5" d="M247.6,252.16v63.9H183.7v-63.9h63.9m2.83-2.83H180.86V318.9h69.57V249.33Z"/><rect class="cls-8" x="250.75" y="250.75" width="66.73" height="66.73"/><path class="cls-5" d="M316.06,252.16v63.9h-63.9v-63.9h63.9m2.84-2.83H249.33V318.9H318.9V249.33Z"/></g></svg>