<svg id="Layer_1" data-name="Layer 1" xmlns="http://www.w3.org/2000/svg" viewBox="0 0 362.83 362.83"><defs><style>.cls-1{fill:#c1b7ab;}.cls-2{fill:#f2f2f2;}.cls-3{fill:#1a1a1a;}.cls-4{fill:#6d6e71;}</style></defs><title>BW</title><circle class="cls-1" cx="181.42" cy="181.42" r="181.42"/><path class="cls-2" d="M154.25,181.1a81.44,81.44,0,0,1,26.82-60.43A81.68,81.68,0,0,0,65.82,236.08l6.64,6.64a81.43,81.43,0,0,0,109.3-.55A81.5,81.5,0,0,1,154.25,181.1Z"/><path class="cls-3" d="M236,99.32a81.38,81.38,0,0,0-55,21.35,81.5,81.5,0,0,1,.69,121.5A81.69,81.69,0,0,0,295.47,125.05l-3.39-3.39A81.46,81.46,0,0,0,236,99.32Z"/><path class="cls-4" d="M181.07,120.67a81.44,81.44,0,0,0,0,120.82c.24.21.45.46.69.68a81.5,81.5,0,0,0-.69-121.5Z"/></svg>