<svg id="Layer_1" data-name="Layer 1" xmlns="http://www.w3.org/2000/svg" viewBox="0 0 362.83 362.83"><defs><style>.cls-1{fill:#c1b7ab;}.cls-2{fill:#1da675;}.cls-3{fill:#be5968;}.cls-4{fill:#efe426;}.cls-5{fill:#849fc8;}.cls-6{fill:#8fd4d8;}.cls-7{fill:#ee82b4;}.cls-8{fill:#fff;}</style></defs><title>Color</title><circle class="cls-1" cx="181.42" cy="181.42" r="181.42"/><path class="cls-2" d="M181.42,151.89a80.27,80.27,0,0,1,79-15,80.15,80.15,0,1,0-158,0,80.27,80.27,0,0,1,79,15Z"/><path class="cls-3" d="M153.67,212.53A80.68,80.68,0,0,1,154.82,199a80.24,80.24,0,0,1-52.4-62.08,80.15,80.15,0,1,0,79,136.26A80,80,0,0,1,153.67,212.53Z"/><path class="cls-4" d="M154.82,199a80,80,0,0,1,26.6-47.1,80.27,80.27,0,0,0-79-15A80.24,80.24,0,0,0,154.82,199Z"/><path class="cls-5" d="M260.42,136.91A80.26,80.26,0,0,1,208,199a81.74,81.74,0,0,1,1.14,13.54,80,80,0,0,1-27.74,60.64,80.15,80.15,0,1,0,79-136.26Z"/><path class="cls-6" d="M181.42,151.89A80.13,80.13,0,0,1,208,199a80.26,80.26,0,0,0,52.4-62.08,80.27,80.27,0,0,0-79,15Z"/><path class="cls-7" d="M209.16,212.53A81.74,81.74,0,0,0,208,199a80.36,80.36,0,0,1-53.2,0,80.16,80.16,0,0,0,26.6,74.18A80,80,0,0,0,209.16,212.53Z"/><path class="cls-8" d="M181.42,151.89a80,80,0,0,0-26.6,47.1,80.36,80.36,0,0,0,53.2,0A80.13,80.13,0,0,0,181.42,151.89Z"/></svg>