<svg id="Layer_1" data-name="Layer 1" xmlns="http://www.w3.org/2000/svg" viewBox="0 0 362.83 362.83"><defs><style>.cls-1{fill:#c1bdcf;}.cls-2{fill:#fcfad7;}.cls-3{fill:#d8e5cb;}.cls-4{fill:#1a1a1a;}.cls-5{fill:#7699b3;}.cls-6,.cls-7,.cls-8{fill:none;stroke-linecap:round;stroke-miterlimit:10;}.cls-6{stroke:#6d6e71;stroke-width:8.5px;}.cls-7{stroke:#f1f2f2;opacity:0.5;}.cls-7,.cls-8{stroke-width:5.67px;}.cls-8{stroke:#58595b;}</style></defs><title>Darkfield</title><circle class="cls-1" cx="181.42" cy="181.42" r="181.42"/><polygon class="cls-2" points="181.41 181.59 122.97 111.75 119.78 107.95 91.06 107.95 181.41 181.59"/><polygon class="cls-2" points="181.42 181.59 181.42 181.59 271.78 107.95 243.05 107.95 181.42 181.59"/><polygon class="cls-3" points="181.41 181.59 200.82 146.96 162.01 146.96 181.41 181.59"/><path class="cls-2" d="M181.42,181.59l37.26,44.53H144.15l37.27-44.53h0l-54.64,44.53v67.4a124.57,124.57,0,0,0,109.27,0v-67.4Z"/><path class="cls-4" d="M160.31,147h1c0-2.16,9-3.91,20.07-3.91s20.06,1.75,20.06,3.91h1.05c8.68,0,15.71-12.55,15.71-28V62.24a124.94,124.94,0,0,0-73.65,0V119C144.59,134.47,151.63,147,160.31,147Z"/><path class="cls-5" d="M181.42,150.94c11.08,0,20.06-1.76,20.06-3.92H161.35C161.35,149.18,170.34,150.94,181.42,150.94Z"/><path class="cls-5" d="M181.42,143.11c-11.08,0-20.07,1.75-20.07,3.91h40.13C201.48,144.86,192.5,143.11,181.42,143.11Z"/><line class="cls-6" x1="223.29" y1="181.59" x2="139.54" y2="181.59"/><path class="cls-7" d="M210.08,70.74V119c0,13.46-5.79,20.46-7.56,20.75"/><line class="cls-8" x1="124.95" y1="226.44" x2="89.23" y2="226.44"/><line class="cls-8" x1="271.78" y1="226.44" x2="236.05" y2="226.44"/><line class="cls-8" x1="215" y1="226.03" x2="147.83" y2="226.03"/></svg>