<svg id="Layer_1" data-name="Layer 1" xmlns="http://www.w3.org/2000/svg" viewBox="0 0 362.83 362.83"><defs><style>.cls-1{fill:#c1b7ab;}.cls-2{fill:#f1dbaf;}.cls-3{fill:#00aeef;}.cls-4{fill:none;stroke:#231f20;stroke-miterlimit:10;stroke-width:8.5px;}.cls-5{fill:#f7941d;}.cls-6{fill:#355c7d;}</style></defs><title>HyD</title><circle class="cls-1" cx="181.42" cy="181.42" r="181.42"/><path class="cls-2" d="M287,159.45c9.56-9.55,10.57-24,2.27-32.32L235.71,73.59c-8.3-8.3-22.77-7.28-32.32,2.27l-75,75L212,234.41Z"/><path class="cls-3" d="M72.63,231.53,131.3,290.2c6.88,6.88,18.88,6,26.8-1.88L212,234.41l-83.59-83.58-53.91,53.9C66.59,212.65,65.75,224.65,72.63,231.53Z"/><line class="cls-4" x1="182.22" y1="180.59" x2="226.9" y2="178.9"/><line class="cls-4" x1="183.91" y1="135.91" x2="182.22" y2="180.59"/><line class="cls-4" x1="263.61" y1="163.69" x2="226.9" y2="178.9"/><line class="cls-4" x1="242.11" y1="142.19" x2="226.9" y2="178.9"/><line class="cls-4" x1="220.62" y1="120.7" x2="183.91" y2="135.91"/><line class="cls-4" x1="199.12" y1="99.2" x2="183.91" y2="135.91"/><circle class="cls-5" cx="182.22" cy="180.59" r="10.14"/><circle class="cls-5" cx="226.9" cy="178.9" r="10.14"/><circle class="cls-5" cx="183.91" cy="135.91" r="10.14"/><circle class="cls-5" cx="263.61" cy="163.69" r="10.14"/><circle class="cls-5" cx="220.62" cy="120.7" r="10.14"/><circle class="cls-5" cx="242.11" cy="142.19" r="10.14"/><circle class="cls-5" cx="199.12" cy="99.2" r="10.14"/><circle class="cls-6" cx="122.4" cy="240.44" r="10.14"/><circle class="cls-6" cx="146.64" cy="234.11" r="10.14"/><circle class="cls-6" cx="128.72" cy="216.19" r="10.14"/><circle class="cls-6" cx="170.98" cy="227.69" r="10.14"/><circle class="cls-6" cx="153.06" cy="209.77" r="10.14"/><circle class="cls-6" cx="135.14" cy="191.85" r="10.14"/></svg>