<svg id="Layer_1" data-name="Layer 1" xmlns="http://www.w3.org/2000/svg" viewBox="0 0 362.83 362.83"><defs><style>.cls-1{fill:#524c48;}.cls-2{fill:#19a79f;}.cls-3{fill:none;stroke:#fff;stroke-linecap:round;stroke-miterlimit:10;stroke-width:8.5px;opacity:0.35;}</style></defs><title>Laser</title><circle class="cls-1" cx="181.42" cy="181.42" r="181.42"/><path class="cls-2" d="M226.28,155.16l25.56.85v-5.67l-25.56.86a24.78,24.78,0,0,0-.34-2.59l49.81-11.39-2.05-7.66-48.83,15a24,24,0,0,0-1-2.41l22.56-12.05-2.83-4.9-21.71,13.52a25.88,25.88,0,0,0-1.59-2.07l6.77-6.29,30.67-28.48-5.61-5.61L223.65,127l-6.29,6.77a25.88,25.88,0,0,0-2.07-1.59l13.52-21.71-4.9-2.83-12,22.56c-.79-.38-1.59-.71-2.41-1l15-48.82-7.66-2L214,90.89l-8.51,37.22a24.78,24.78,0,0,0-2.59-.34l.86-25.57H198l.85,25.57a25.51,25.51,0,0,0-2.59.34L184.91,78.3l-7.65,2,1.32,4.29,12,38.82,1.76,5.71c-.82.3-1.63.63-2.42,1l-12-22.56-4.9,2.83.79,1.28,12.35,19.83.38.6a24.34,24.34,0,0,0-2.08,1.59L149.64,96.33l0,0-5.6,5.61,0,0,37.42,34.75a25.88,25.88,0,0,0-1.59,2.07l-20.4-12.71,0,0h0l-1.27-.79-2.83,4.9h0l22.56,12.05a24.08,24.08,0,0,0-1,2.41L150,136.33l-17.71-5.45-4.28-1.32L126,137.22h0l49.8,11.39c-.15.85-.26,1.72-.33,2.59l-25.57-.86V156l25.57-.85c.07.86.18,1.73.33,2.59l-16.5,3.77-20.71,4.74L126,169.13l2.05,7.66,35.56-10.95,11.73-3.61-99,99a11.66,11.66,0,1,0,16.49,16.48l73.38-73.38,25.63-25.63L177.26,226l7.65,2.05,11.39-49.81a25.51,25.51,0,0,0,2.59.34L198,204.15h5.67l-.86-25.57a24.78,24.78,0,0,0,2.59-.34l11.39,49.81,7.66-2.05-15-48.82a24.08,24.08,0,0,0,2.41-1l12,22.56,4.9-2.83-13.52-21.71a25.88,25.88,0,0,0,2.07-1.59L252.13,210l5.61-5.6L220.3,169.67a26,26,0,0,0,1.59-2.08l21.71,13.52,2.83-4.9-22.56-12a24.17,24.17,0,0,0,1-2.42l48.83,15,2.05-7.66-49.81-11.38A25.51,25.51,0,0,0,226.28,155.16Z"/><path class="cls-3" d="M184.39,156.42c0-11.11,8.44-20.1,18.87-20.1"/></svg>