<svg id="Layer_1" data-name="Layer 1" xmlns="http://www.w3.org/2000/svg" viewBox="0 0 362.83 362.83"><defs><style>.cls-1{fill:#524c48;}.cls-2{fill:#f19c23;}.cls-3{fill:#80d1e1;}.cls-4{fill:#2bb673;}.cls-5{fill:#fff;opacity:0.5;}.cls-6{fill:#efc41c;}.cls-7{opacity:0.2;}.cls-8{fill:#231f20;}</style></defs><title>LED</title><circle class="cls-1" cx="181.42" cy="181.42" r="181.42"/><polygon class="cls-2" points="133.34 282.91 133.34 282.91 133.34 282.91 133.34 282.91"/><path class="cls-3" d="M284.29,159.78A83.83,83.83,0,0,0,262,105.36l-4.48-4.49q-1-.93-2-1.83a84,84,0,0,0-114.39,4l-31.7,31.7,11,11L146.57,172l22.57,22.57,21.71,21.72L200,225.4l9.35,9.34,18.75,18.76,31.71-31.7a83.77,83.77,0,0,0,24.57-59.38C284.36,161.54,284.32,160.66,284.29,159.78Z"/><path class="cls-4" d="M257.47,100.87l4.48,4.49C260.52,103.81,259,102.31,257.47,100.87Z"/><path class="cls-5" d="M246.22,108.81a63.19,63.19,0,0,0-7.62-6,64.21,64.21,0,0,0-26.28-10.11,6.46,6.46,0,0,0-1.89,12.79,52,52,0,0,1,27.11,12.84,6.46,6.46,0,0,0,8.68-9.57Z"/><path class="cls-5" d="M159.31,120.78a6.42,6.42,0,0,0,4.56-1.9,51.16,51.16,0,0,1,20-12.42,6.46,6.46,0,0,0-4.1-12.25,63.78,63.78,0,0,0-25.08,15.54,6.47,6.47,0,0,0,4.57,11Z"/><path class="cls-2" d="M112.31,198.88l-5.45-5.45L79.93,220.36a6.44,6.44,0,0,0,0,9.13h0a6.44,6.44,0,0,0,9.13,0L116,202.56Z"/><path class="cls-2" d="M142.48,282.91,169.41,256l-9.14-9.14-26.93,26.93a6.47,6.47,0,0,0,0,9.14h0A6.47,6.47,0,0,0,142.48,282.91Z"/><path class="cls-2" d="M237.22,262.63l-9.14-9.13h0L200,225.4a6.46,6.46,0,0,1-9.13-9.13l-43.42-43.43-.86-.86a6.46,6.46,0,0,1-9.13-9.13l-28.1-28.1-9.14-9.13a6.44,6.44,0,0,0-9.13,0l-9.49,9.49a6.44,6.44,0,0,0,0,9.13l28.1,28.1L125.3,188l11.78,11.77,26,26,27.4,27.4,28.1,28.1a6.47,6.47,0,0,0,9.14,0l9.49-9.49A6.47,6.47,0,0,0,237.22,262.63Z"/><polygon class="cls-2" points="137.44 162.85 109.34 134.75 137.44 162.85 137.44 162.85"/><polygon class="cls-2" points="146.57 171.99 146.57 171.99 147.43 172.84 147.43 172.84 146.57 171.99"/><polygon class="cls-2" points="190.85 216.26 147.43 172.84 147.43 172.84 190.85 216.26 190.85 216.26"/><polygon class="cls-2" points="199.99 225.4 228.08 253.5 228.08 253.5 199.99 225.4 199.99 225.4"/><path class="cls-2" d="M190.85,225.4a6.46,6.46,0,0,0,9.13,0l-9.13-9.13A6.46,6.46,0,0,0,190.85,225.4Z"/><polygon class="cls-2" points="199.99 225.4 199.99 225.4 190.85 216.26 190.85 216.26 199.99 225.4"/><path class="cls-2" d="M137.44,172a6.44,6.44,0,0,0,9.13,0l-9.13-9.13A6.44,6.44,0,0,0,137.44,172Z"/><polygon class="cls-2" points="137.44 162.85 137.44 162.85 146.57 171.99 146.57 171.99 137.44 162.85"/><path class="cls-6" d="M125.3,188l-15.62-15.63-2.82,2.82a12.91,12.91,0,0,0,0,18.27,6.46,6.46,0,0,1,9.13,0,6.32,6.32,0,0,1,.89,1.13,6.45,6.45,0,0,1-.89,8,12.91,12.91,0,0,0,18.27,0l2.82-2.82Z"/><path class="cls-6" d="M116.88,194.56a6.32,6.32,0,0,0-.89-1.13,6.46,6.46,0,0,0-9.13,0l5.45,5.45,3.68,3.68A6.45,6.45,0,0,0,116.88,194.56Z"/><path class="cls-6" d="M160.27,228.58a12.92,12.92,0,0,0,0,18.26,6.46,6.46,0,0,1,9.14,9.14,12.92,12.92,0,0,0,18.26,0l2.82-2.82-27.4-27.4Z"/><path class="cls-6" d="M169.41,246.84a6.47,6.47,0,0,0-9.14,0l9.14,9.14A6.47,6.47,0,0,0,169.41,246.84Z"/><polygon class="cls-6" points="163.09 225.76 163.09 225.76 190.49 253.16 190.49 253.16 163.09 225.76"/><g class="cls-7"><path class="cls-8" d="M236.71,179.54,230.2,173a6.47,6.47,0,0,0-6.23-1.66L195,179a6.46,6.46,0,0,0-2.9,10.8l12.6,12.6-13.89,13.89L200,225.4l13.89-13.89,22.84-22.84A6.46,6.46,0,0,0,236.71,179.54Z"/><path class="cls-8" d="M202.12,149.53a6.46,6.46,0,0,0-1.66-6.24l-4-4-13.2-13.19a6.44,6.44,0,0,0-9.13,0L151.32,149l-13.88,13.89,9.13,9.13,13.89-13.88L162.4,160a6.78,6.78,0,0,0,1.88,1.29,6.5,6.5,0,0,0,4.35.37l28.93-7.61A6.46,6.46,0,0,0,202.12,149.53Z"/></g></svg>