<svg id="Layer_1" data-name="Layer 1" xmlns="http://www.w3.org/2000/svg" viewBox="0 0 362.83 362.83"><defs><style>.cls-1{fill:#456f78;}.cls-2{fill:#d9f0fa;}.cls-3{fill:#68c2e5;}.cls-4{fill:#39b54a;}.cls-4,.cls-6{opacity:0.5;}.cls-5{fill:#a7a9ac;}.cls-6{fill:none;stroke:#f1f2f2;stroke-linecap:round;stroke-miterlimit:10;stroke-width:5.67px;}.cls-7{fill:#9dcaec;}</style></defs><title>Lightsheet</title><circle class="cls-1" cx="181.42" cy="181.42" r="181.42"/><path class="cls-2" d="M139.22,171.3C103,162.82,61,149.5,61,149.5v62.8s42-13.33,78.23-21.81a43.17,43.17,0,0,1,0-19.19Z"/><path class="cls-2" d="M301.81,149.5s-41.95,13.32-78.2,21.8a43.17,43.17,0,0,1,0,19.19c36.26,8.48,78.24,21.81,78.24,21.81Z"/><path class="cls-3" d="M223.61,171.3a43.25,43.25,0,0,0-84.39,0c16.93,4,32.62,6.87,42.2,6.87S206.68,175.26,223.61,171.3Z"/><path class="cls-3" d="M139.26,190.49a43.25,43.25,0,0,0,84.31,0c-16.91-4-32.58-6.86-42.15-6.86S156.17,186.54,139.26,190.49Z"/><path class="cls-2" d="M223.61,171.3c-16.93,4-32.61,6.87-42.19,6.87s-25.27-2.91-42.2-6.87a43.17,43.17,0,0,0,0,19.19c16.91-4,32.58-6.86,42.16-6.86s25.24,2.91,42.15,6.86a43.17,43.17,0,0,0,0-19.19Z"/><path class="cls-4" d="M223.61,171.3c-16.93,4-32.61,6.87-42.19,6.87s-25.27-2.91-42.2-6.87a43.17,43.17,0,0,0,0,19.19c16.91-4,32.58-6.86,42.16-6.86s25.24,2.91,42.15,6.86a43.17,43.17,0,0,0,0-19.19Z"/><path class="cls-5" d="M92,204.3V157.51a17.42,17.42,0,0,0-17.41-17.42H32.38a155.39,155.39,0,0,0-.19,81.62H74.58A17.42,17.42,0,0,0,92,204.3Z"/><path class="cls-6" d="M39,148.6H74.58a8.92,8.92,0,0,1,8.91,8.91"/><path class="cls-5" d="M330.45,140.09H288.26a17.42,17.42,0,0,0-17.42,17.42V204.3a17.42,17.42,0,0,0,17.42,17.41h42.38a155.39,155.39,0,0,0-.19-81.62Z"/><path class="cls-6" d="M279.35,157.51a8.91,8.91,0,0,1,8.91-8.91h35.56"/><ellipse class="cls-7" cx="91.99" cy="180.9" rx="5.07" ry="22.23"/><ellipse class="cls-7" cx="270.84" cy="180.9" rx="5.07" ry="22.23"/></svg>