<svg id="Layer_1" data-name="Layer 1" xmlns="http://www.w3.org/2000/svg" viewBox="0 0 362.83 362.83"><defs><style>.cls-1{fill:#bcdfbd;}.cls-2{fill:#e6e7e8;}.cls-3{fill:#58595b;}.cls-4{fill:#9cc0e6;}.cls-5,.cls-6,.cls-7,.cls-8{fill:none;stroke-miterlimit:10;}.cls-5,.cls-6{stroke:#f7941d;stroke-width:8.5px;}.cls-5,.cls-7,.cls-8{stroke-linecap:round;}.cls-7,.cls-8{stroke:#f15a29;}.cls-7{stroke-width:19.84px;}.cls-8{stroke-width:17.01px;}.cls-9{fill:#00a79d;}.cls-10{fill:#459da0;}.cls-11{fill:#f1f2f2;}</style></defs><title>Live</title><circle class="cls-1" cx="181.9" cy="181.42" r="181.42"/><circle class="cls-2" cx="181.42" cy="181.42" r="122.53"/><path class="cls-3" d="M181.42,307.46a126,126,0,1,1,126-126A126.18,126.18,0,0,1,181.42,307.46Zm0-245a119,119,0,1,0,119,119A119.14,119.14,0,0,0,181.42,62.41Z"/><circle class="cls-4" cx="146.52" cy="135.98" r="38.14"/><path class="cls-5" d="M146.52,196.3A60.29,60.29,0,0,1,86.2,136"/><path class="cls-5" d="M197.2,103.25a60.34,60.34,0,0,1-22.44,86.05"/><path class="cls-5" d="M146.52,75.66a60.49,60.49,0,0,1,18.26,2.81"/><path class="cls-5" d="M146.52,216.41a80.43,80.43,0,0,1-75.47-52.59"/><path class="cls-5" d="M216.45,96.22a80.6,80.6,0,0,1,4.66,69.9"/><path class="cls-5" d="M237.79,178.21A100.72,100.72,0,0,1,156.47,236c-3.27.32-6.59.49-9.95.49"/><path class="cls-5" d="M245.84,120.29A101.49,101.49,0,0,1,247.06,136"/><line class="cls-6" x1="123.1" y1="191.59" x2="116.36" y2="207.36"/><line class="cls-6" x1="206.84" y1="135.98" x2="226.95" y2="135.98"/><line class="cls-6" x1="184.67" y1="182.69" x2="210.11" y2="213.88"/><path class="cls-7" d="M150.16,269.82q-8.7-2.44-17.39-5.6"/><path class="cls-8" d="M279.2,188.36a274.29,274.29,0,0,1-10.4,28"/><circle class="cls-9" cx="199.5" cy="249.09" r="7.34"/><circle class="cls-9" cx="172.14" cy="208.08" r="7.34"/><circle class="cls-9" cx="179.48" cy="91.7" r="7.34"/><circle class="cls-9" cx="245.13" cy="156.48" r="7.34"/><path class="cls-10" d="M302.49,78.71,302,78.2a55.83,55.83,0,0,0-65-9.88,56.19,56.19,0,0,0-20.7,18.49,55.88,55.88,0,0,0,82.3,74,56.56,56.56,0,0,0,6-5.87,55.82,55.82,0,0,0-2.16-76.21Z"/><polygon class="cls-11" points="282.4 87.82 273.7 97.27 269.15 102.21 258.41 113.88 238.92 100.2 237.01 102.93 224.03 121.42 262.22 148.18 269.24 140.54 284.61 123.82 289.38 118.63 301.54 105.4 282.4 87.82"/></svg>