<svg id="Layer_1" data-name="Layer 1" xmlns="http://www.w3.org/2000/svg" viewBox="0 0 362.83 362.83"><defs><style>.cls-1{fill:#21aae1;}.cls-2{fill:#bcbec0;}</style></defs><title>No Operator</title><path class="cls-1" d="M181.42,42A73.54,73.54,0,1,0,255,115.51,73.65,73.65,0,0,0,181.42,42Z"/><path class="cls-1" d="M302.67,259.09a118.14,118.14,0,0,0-98.54-52.62H158.7a118.16,118.16,0,0,0-98.54,52.62l-1.3,2.13V303l117.36,45.17L304,305.43V261.22Z"/><path class="cls-2" d="M309.7,53.14C238.85-17.71,124-17.71,53.14,53.14s-70.85,185.71,0,256.56,185.71,70.85,256.56,0S380.55,124,309.7,53.14Zm-231.52,25A146,146,0,0,1,271,66.15L66.15,271A146,146,0,0,1,78.18,78.18ZM91.8,296.69,296.69,91.8A146,146,0,0,1,91.8,296.69Z"/></svg>