<svg id="Layer_1" data-name="Layer 1" xmlns="http://www.w3.org/2000/svg" viewBox="0 0 362.83 362.83"><defs><style>.cls-1{fill:#c1b7ab;}.cls-2{fill:#e6e6e6;}.cls-3{fill:#e6e7e8;}.cls-12,.cls-4,.cls-5,.cls-6,.cls-7,.cls-8{fill:none;stroke-miterlimit:10;}.cls-4{stroke:#ef4136;}.cls-12,.cls-4{stroke-width:2.83px;}.cls-5,.cls-6,.cls-8{stroke:#939598;}.cls-5,.cls-7{stroke-width:11.34px;}.cls-6{stroke-width:5.67px;}.cls-7{stroke:#414042;}.cls-12,.cls-7{stroke-linecap:round;}.cls-8{stroke-width:17.01px;}.cls-9{fill:gray;}.cls-10{fill:#1a1a1a;}.cls-11{fill:#00aeef;}.cls-12{stroke:#f7941d;}</style></defs><title>PMT</title><circle class="cls-1" cx="181.42" cy="181.42" r="181.42"/><path class="cls-2" d="M120.08,199.41c-1,.28-2.08.59-3.09,1,.36.36.7.74,1,1.11Z"/><path class="cls-2" d="M181.6,137.9c-1,.27-2.07.58-3.08.94.34.35.68.73,1,1.12Z"/><rect class="cls-3" x="71.88" y="132.16" width="219.07" height="99.46" rx="18.75" transform="translate(-75.48 181.55) rotate(-45)"/><path class="cls-4" d="M106.06,261.44c19.9-19.9,24.79-47.22,10.93-61.08"/><path class="cls-5" d="M174.75,240.43c15.81-15.8,20.05-85.3,3.77-101.59"/><path class="cls-6" d="M120.11,199.4s22.35,35.89,53.16,39.49"/><path class="cls-7" d="M144.52,239.5a37.5,37.5,0,0,0,50-17.7"/><path class="cls-7" d="M145.8,201.84a37.5,37.5,0,0,0-50,17.7"/><path class="cls-8" d="M255.59,155.71c-25-10.55-25.06-30.48-22.49-51.45"/><path class="cls-9" d="M249.62,155.26l-.75-.75a16.93,16.93,0,0,1-12.61,5h0c-18,0-41.95-20-48.91-27l-10,10c.29.29,26.57,26.42,52.33,30.58a5.6,5.6,0,0,1,1.61-.89A31.76,31.76,0,0,0,249.62,155.26Z"/><path class="cls-10" d="M261.31,127.79a5.67,5.67,0,0,0-10.69,3.79,31.9,31.9,0,0,1-19.41,40.65,5.6,5.6,0,0,0-1.61.89,5.66,5.66,0,0,0,5.39,9.8,42.94,42.94,0,0,0,20.68-15.56c.85-1.19,1.63-2.42,2.36-3.69A43.09,43.09,0,0,0,261.31,127.79Z"/><rect class="cls-11" x="228.95" y="82.32" width="8.26" height="44.86" rx="4.13" transform="translate(120.3 334.05) rotate(-88.01)"/><path class="cls-7" d="M207.31,140.32a37.51,37.51,0,0,0-50,17.7"/><line class="cls-12" x1="81.06" y1="238.44" x2="124.87" y2="282.25"/></svg>