<svg id="Layer_1" data-name="Layer 1" xmlns="http://www.w3.org/2000/svg" viewBox="0 0 362.83 362.83"><defs><style>.cls-1{fill:#456f78;}.cls-2{fill:#f1f2f2;}.cls-3{fill:#414042;}</style></defs><title>Spinning Disk</title><circle class="cls-1" cx="181.42" cy="181.42" r="181.42"/><circle class="cls-2" cx="181.42" cy="181.42" r="130.39"/><path class="cls-3" d="M181.42,51a130.4,130.4,0,1,0,130.39,130.4A130.4,130.4,0,0,0,181.42,51Zm112.24,93.9a5.16,5.16,0,1,1-3.09,6.61A5.15,5.15,0,0,1,293.66,144.92Zm-3.32,16.56a5.16,5.16,0,1,1-6.62-3.08A5.17,5.17,0,0,1,290.34,161.48Zm-15.93-52.75a5.16,5.16,0,1,1-.64,7.27A5.16,5.16,0,0,1,274.41,108.73Zm-4.73,16.07a5.16,5.16,0,1,1-.64,7.27A5.16,5.16,0,0,1,269.68,124.8ZM265,140.86a5.16,5.16,0,1,1-.63,7.27A5.16,5.16,0,0,1,265,140.86Zm2.43,54.19a5.16,5.16,0,1,1,3.09-6.61A5.15,5.15,0,0,1,267.38,195.05Zm4.1,9a5.16,5.16,0,1,1-5.16,5.16A5.16,5.16,0,0,1,271.48,204Zm-11.26-47.12a5.16,5.16,0,1,1-.63,7.27A5.17,5.17,0,0,1,260.22,156.92Zm2.47,61.55a5.16,5.16,0,1,1-5.16-5.16A5.16,5.16,0,0,1,262.69,218.47ZM256,136.61a5.16,5.16,0,1,1-1.89-7.05A5.17,5.17,0,0,1,256,136.61Zm-1-16.71a5.16,5.16,0,1,1-1.89-7.05A5.16,5.16,0,0,1,255,119.9Zm-1-16.72A5.16,5.16,0,1,1,252,96.13,5.16,5.16,0,0,1,253.93,103.18Zm-10-21.87a5.16,5.16,0,1,1,1.89,7A5.16,5.16,0,0,1,243.94,81.31Zm-25.33-4.19a5.16,5.16,0,1,1-6,4.19A5.17,5.17,0,0,1,218.61,77.12Zm-26.36,5.7a5.16,5.16,0,1,1-4.19,6A5.15,5.15,0,0,1,192.25,82.82Zm4.66,98.6a15.49,15.49,0,1,1-15.49-15.49A15.5,15.5,0,0,1,196.91,181.42ZM180.7,70.69a5.16,5.16,0,1,1-4.19,6A5.17,5.17,0,0,1,180.7,70.69Zm-.78,23.7a5.16,5.16,0,1,1-7-1.89A5.16,5.16,0,0,1,179.92,94.39ZM169.15,58.57a5.16,5.16,0,1,1-4.19,6A5.16,5.16,0,0,1,169.15,58.57Zm-18.27,48.85a5.16,5.16,0,1,1-.64-7.27A5.16,5.16,0,0,1,150.88,107.42Zm-8-29.81a5.16,5.16,0,1,1-1.89,7A5.17,5.17,0,0,1,142.87,77.61Zm-15-7.44a5.16,5.16,0,1,1-1.89,7A5.16,5.16,0,0,1,127.87,70.17Zm-1.54,28.75a5.16,5.16,0,1,1,.64,7.27A5.17,5.17,0,0,1,126.33,98.92Zm-16.64-1.86a5.16,5.16,0,1,1,.64,7.27A5.16,5.16,0,0,1,109.69,97.06Zm-1.63,22.59a5.16,5.16,0,1,1-6.62,3.09A5.17,5.17,0,0,1,108.06,119.65Zm-15-24.46a5.16,5.16,0,1,1,.64,7.27A5.16,5.16,0,0,1,93.05,95.19Zm2.4,72.59a5.16,5.16,0,1,1-3.08,6.62A5.17,5.17,0,0,1,95.45,167.78Zm-4.09-9a5.16,5.16,0,1,1,5.16-5.16A5.17,5.17,0,0,1,91.36,158.79Zm-6.19-32.11a5.16,5.16,0,1,1,3.08,6.61A5.16,5.16,0,0,1,85.17,126.68Zm.35,54.58a5.16,5.16,0,1,1-3.09,6.62A5.16,5.16,0,0,1,85.52,181.26Zm-3-18.36a5.16,5.16,0,1,1-5.16-5.16A5.16,5.16,0,0,1,82.57,162.9ZM68.89,130.62A5.16,5.16,0,1,1,72,137.23,5.17,5.17,0,0,1,68.89,130.62ZM58.3,172.17a5.16,5.16,0,1,1,5.16,5.16A5.16,5.16,0,0,1,58.3,172.17Zm10.88,45.75a5.16,5.16,0,1,1,3.08-6.62A5.17,5.17,0,0,1,69.18,217.92Zm3.32-16.57a5.16,5.16,0,1,1,6.61,3.09A5.15,5.15,0,0,1,72.5,201.35ZM88.43,254.1a5.16,5.16,0,1,1,.64-7.27A5.16,5.16,0,0,1,88.43,254.1ZM93.16,238a5.16,5.16,0,1,1,.63-7.27A5.16,5.16,0,0,1,93.16,238ZM97.88,222a5.16,5.16,0,1,1,.64-7.27A5.17,5.17,0,0,1,97.88,222Zm4.73-16.07a5.16,5.16,0,1,1,.64-7.27A5.16,5.16,0,0,1,102.61,205.91Zm-2.47-61.55a5.16,5.16,0,1,1,5.16,5.17A5.16,5.16,0,0,1,100.14,144.36Zm6.66,81.87a5.16,5.16,0,1,1,1.89,7.05A5.16,5.16,0,0,1,106.8,226.23Zm1,16.71a5.16,5.16,0,1,1,1.89,7.05A5.17,5.17,0,0,1,107.85,242.94Zm1.06,16.71a5.16,5.16,0,1,1,1.88,7.05A5.16,5.16,0,0,1,108.91,259.65Zm10,21.87a5.16,5.16,0,1,1-1.89-7A5.16,5.16,0,0,1,118.9,281.52Zm1.9-156.1a5.16,5.16,0,1,1,6.61-3.09A5.16,5.16,0,0,1,120.8,125.42Zm10,129.6a5.16,5.16,0,1,1,6-4.18A5.15,5.15,0,0,1,130.81,255Zm6.71,15.35a5.16,5.16,0,1,1,6-4.19A5.17,5.17,0,0,1,137.52,270.37Zm6.7,15.34a5.16,5.16,0,1,1,6-4.18A5.16,5.16,0,0,1,144.22,285.71Zm12.69,11.16a5.16,5.16,0,1,1-4.19-6A5.17,5.17,0,0,1,156.91,296.87Zm2.13-29a5.16,5.16,0,1,1,4.19-6A5.16,5.16,0,0,1,159,267.89ZM163,94a5.16,5.16,0,1,1,1.89-7A5.17,5.17,0,0,1,163,94Zm7.56,186a5.16,5.16,0,1,1,4.18-6A5.16,5.16,0,0,1,170.59,280Zm11.55,12.12a5.16,5.16,0,1,1,4.18-6A5.16,5.16,0,0,1,182.14,292.14Zm.78-23.7a5.16,5.16,0,1,1,7.05,1.89A5.16,5.16,0,0,1,182.92,268.44Zm10.76,35.83a5.16,5.16,0,1,1,4.19-6A5.16,5.16,0,0,1,193.68,304.27ZM205,277.78a5.16,5.16,0,1,1,1.88-7A5.16,5.16,0,0,1,205,277.78Zm.62-172.67a5.16,5.16,0,1,1,4.18-6A5.16,5.16,0,0,1,205.59,105.11ZM205.93,66a5.16,5.16,0,1,1,4.19,6A5.15,5.15,0,0,1,205.93,66Zm6,189.44a5.16,5.16,0,1,1,.64,7.27A5.18,5.18,0,0,1,212,255.41Zm8,29.81a5.16,5.16,0,1,1,1.89-7.05A5.16,5.16,0,0,1,220,285.22Zm3.56-182.59a5.16,5.16,0,1,1,6-4.18A5.16,5.16,0,0,1,223.52,102.63ZM226,112a5.16,5.16,0,1,1,4.19,6A5.16,5.16,0,0,1,226,112ZM235,292.66a5.16,5.16,0,1,1,1.89-7.05A5.16,5.16,0,0,1,235,292.66Zm1.54-28.75a5.16,5.16,0,1,1-.63-7.27A5.17,5.17,0,0,1,236.5,263.91Zm2-16.79a5.16,5.16,0,1,1,6.62-3.09A5.17,5.17,0,0,1,238.5,247.12Zm14.64,18.66a5.16,5.16,0,1,1-.63-7.27A5.16,5.16,0,0,1,253.14,265.78Zm1.64-22.6a5.16,5.16,0,1,1,6.61-3.08A5.16,5.16,0,0,1,254.78,243.18Zm15,24.46a5.16,5.16,0,1,1-.63-7.27A5.16,5.16,0,0,1,269.78,267.64Zm7.89-31.48a5.16,5.16,0,1,1-3.09-6.62A5.16,5.16,0,0,1,277.67,236.16Zm-.35-54.59A5.16,5.16,0,1,1,280.4,175,5.16,5.16,0,0,1,277.32,181.57Zm2.94,18.37a5.17,5.17,0,1,1,5.17,5.16A5.16,5.16,0,0,1,280.26,199.94Zm13.68,32.28a5.16,5.16,0,1,1-3.08-6.62A5.15,5.15,0,0,1,293.94,232.22Zm5.43-36.39a5.16,5.16,0,1,1,5.16-5.16A5.16,5.16,0,0,1,299.37,195.83Z"/></svg>